<svg xmlns="http://www.w3.org/2000/svg" width="33.015" height="29.58" viewBox="0 0 33.015 29.58">
    <g data-name="Group 6451">
        <path data-name="Path 3374" d="M135.211 172.873a.575.575 0 0 0-.574-.547h-2.617a.575.575 0 0 0-.574.547l-.584 12a.575.575 0 0 0 .574.6h3.785a.575.575 0 0 0 .574-.6z" transform="translate(-120.631 -159.818)" style="fill:#00a57f"/>
        <path data-name="Path 3375" d="M161.1 185.477h1.447a.575.575 0 0 0 .574-.6l-.584-12a.575.575 0 0 0-.574-.547h-1.5z" transform="translate(-147.959 -159.818)" style="fill:#01896a"/>
        <path data-name="Path 3376" d="M218.348 172.873a.575.575 0 0 0-.574-.547h-2.617a.575.575 0 0 0-.574.547l-.584 12a.575.575 0 0 0 .574.6h3.785a.575.575 0 0 0 .574-.6z" transform="translate(-196.097 -159.818)" style="fill:#00a57f"/>
        <path data-name="Path 3377" d="M244.24 185.477h1.447a.575.575 0 0 0 .574-.6l-.584-12a.575.575 0 0 0-.574-.547h-1.5z" transform="translate(-223.426 -159.818)" style="fill:#01896a"/>
        <path data-name="Path 3378" d="M52.074 172.873a.575.575 0 0 0-.574-.547h-2.617a.575.575 0 0 0-.574.547l-.584 12a.575.575 0 0 0 .574.6h3.785a.575.575 0 0 0 .574-.6z" transform="translate(-45.164 -159.818)" style="fill:#00a57f"/>
        <path data-name="Path 3379" d="M77.967 185.477h1.447a.575.575 0 0 0 .574-.6l-.584-12a.575.575 0 0 0-.574-.547h-1.5z" transform="translate(-72.495 -159.818)" style="fill:#01896a"/>
        <path data-name="Path 3380" d="M301.484 172.873a.575.575 0 0 0-.574-.547h-2.617a.575.575 0 0 0-.574.547l-.584 12a.575.575 0 0 0 .574.6h3.785a.575.575 0 0 0 .574-.6z" transform="translate(-271.564 -159.818)" style="fill:#00a57f"/>
        <path data-name="Path 3381" d="M327.377 185.477h1.447a.575.575 0 0 0 .574-.6l-.584-12a.575.575 0 0 0-.574-.547h-1.5z" transform="translate(-298.892 -159.818)" style="fill:#01896a"/>
        <path data-name="Path 3384" d="M50.56 328.873a.574.574 0 0 0-.473-.249H31.716a.575.575 0 0 0-.575.575v3.921a.575.575 0 0 0 .575.575h17.808a.575.575 0 0 0 .573-.62 8.674 8.674 0 0 1-.026-.665 8.387 8.387 0 0 1 .553-3.007.575.575 0 0 0-.064-.53z" transform="translate(-31.141 -304.115)" style="fill:#04a883"/>
        <path data-name="Path 3385" d="m63.8 41.418-15.93-6.643a.575.575 0 0 0-.442 0l-15.933 6.643a.575.575 0 0 0 .221 1.105h31.865a.575.575 0 0 0 .221-1.105z" transform="translate(-31.141 -32.787)" style="fill:#01896a"/>
        <path data-name="Path 3386" d="m240.006 18.05-15.579-6.5V9.994a.575.575 0 0 0-1.149 0v1.56l-1.278.533 16.951 7.068h.834a.575.575 0 0 0 .221-1.105z" transform="translate(-207.346 -9.419)" style="fill:#006f56"/>
        <path data-name="Path 3387" d="M63.581 121.256H31.716a.575.575 0 0 0-.575.575v3.921a.575.575 0 0 0 .575.575h31.865a.575.575 0 0 0 .575-.575v-3.921a.575.575 0 0 0-.575-.575z" transform="translate(-31.141 -112.669)" style="fill:#04a883"/>
        <path data-name="Path 3389" d="M29.216 328.873a.406.406 0 0 1 .349-.249h16.154c.234 0 .423.257.423.575v3.921c0 .317-.19.575-.423.575h-15.74a.383.383 0 0 1-.311-.185.711.711 0 0 1-.111-.435c.013-.22.019-.444.019-.665a11.089 11.089 0 0 0-.407-3.007.753.753 0 0 1 .047-.53z" transform="translate(-13.265 -304.115)" style="fill:#04a883"/>
    </g>
</svg>
