<svg xmlns="http://www.w3.org/2000/svg" width="25" height="25" viewBox="0 0 25 25">
    <g data-name="Group 6601">
        <g data-name="Group 6598">
            <path data-name="Polygon 1" d="M10.751 2.152a2.253 2.253 0 0 1 3.5 0l.007.008a2.253 2.253 0 0 0 2.447.721 2.253 2.253 0 0 1 2.937 1.883l.007.059a2.253 2.253 0 0 0 1.656 1.918l.047.013A2.253 2.253 0 0 1 22.8 9.912l-.043.088a2.253 2.253 0 0 0 .357 2.494l.061.068a2.253 2.253 0 0 1-.495 3.434l-.063.039a2.253 2.253 0 0 0-1.046 2.3l.014.082a2.253 2.253 0 0 1-2.285 2.622h-.023a2.253 2.253 0 0 0-2.138 1.379l-.013.03a2.253 2.253 0 0 1-3.354.983 2.253 2.253 0 0 0-2.554 0 2.253 2.253 0 0 1-3.354-.983l-.013-.03a2.253 2.253 0 0 0-2.138-1.379H5.7a2.253 2.253 0 0 1-2.282-2.628l.014-.082a2.253 2.253 0 0 0-1.046-2.3l-.063-.039a2.253 2.253 0 0 1-.495-3.434l.061-.068A2.253 2.253 0 0 0 2.243 10L2.2 9.912a2.253 2.253 0 0 1 1.447-3.158l.047-.013A2.253 2.253 0 0 0 5.35 4.823l.007-.059A2.253 2.253 0 0 1 8.293 2.88a2.253 2.253 0 0 0 2.447-.721z" style="fill:#ef5d28"/>
        </g>
        <g data-name="Group 6600">
            <path data-name="Path 4502" d="M208.5 78.116h-1.855a.348.348 0 0 1-.347-.332l-.3-6.73a.7.7 0 0 1 .694-.726h1.761a.7.7 0 0 1 .694.726l-.3 6.73a.347.347 0 0 1-.347.332z" transform="translate(-194.939 -63.277)" style="fill:#fff"/>
            <path data-name="Path 4503" d="M217.282 364.236a1.26 1.26 0 1 1 1.26-1.26 1.26 1.26 0 0 1-1.26 1.26z" transform="translate(-204.646 -345.482)" style="fill:#fff"/>
        </g>
    </g>
</svg>
