<svg xmlns="http://www.w3.org/2000/svg" width="15.806" height="15.806" viewBox="0 0 15.806 15.806">
    <path data-name="Path 4332" d="M226.637.322v1.034a3.968 3.968 0 0 0-.6.293 1.151 1.151 0 0 1-.761 0 3.953 3.953 0 0 0-.6-.294V.322a.322.322 0 0 1 .316-.322h1.324a.322.322 0 0 1 .322.322z" transform="translate(-217.734)" style="fill:#2a2a2e"/>
    <path data-name="Path 4333" d="M226.637 176.17v5.03c-.643.249-.544.36-.985.36s-.35-.114-.983-.359v-5.03a5.032 5.032 0 0 0 1.968-.001z" transform="translate(-217.734 -170.732)" style="fill:#2a2a2e"/>
    <path data-name="Path 4334" d="M225.653 471.457a5.021 5.021 0 0 0 .984-.1v.933a.322.322 0 0 1-.322.322h-1.324a.322.322 0 0 1-.322-.322v-.933a5 5 0 0 0 .984.1z" transform="translate(-217.734 -456.809)" style="fill:#2a2a2e"/>
    <path data-name="Path 4335" d="M75.927.322v5.437a4.3 4.3 0 0 0-1.406.523 1.094 1.094 0 0 1-.561.054V.322A.322.322 0 0 1 74.282 0h1.324a.322.322 0 0 1 .322.322z" transform="translate(-71.677)" style="fill:#2a2a2e"/>
    <path data-name="Path 4336" d="M75.927 318.57v5.65a.322.322 0 0 1-.322.322h-1.323a.322.322 0 0 1-.322-.322v-5.32a4.867 4.867 0 0 0 1.967-.33z" transform="translate(-71.677 -308.736)" style="fill:#2a2a2e"/>
    <path data-name="Path 4337" d="M377.347.322v6.014a1.11 1.11 0 0 1-.568-.057 4.315 4.315 0 0 0-1.4-.52V.322A.322.322 0 0 1 375.7 0h1.324a.322.322 0 0 1 .322.322z" transform="translate(-363.792)" style="fill:#2a2a2e"/>
    <path data-name="Path 4338" d="M377.347 318.921v5.318a.322.322 0 0 1-.322.322H375.7a.322.322 0 0 1-.322-.322v-5.649a4.872 4.872 0 0 0 1.969.331z" transform="translate(-363.792 -308.755)" style="fill:#2a2a2e"/>
    <g data-name="Group 6190">
        <path data-name="Path 4339" d="M5.191 213.72a4.076 4.076 0 0 1 .818.082v2.063a1.952 1.952 0 0 0-1.695.033 3.9 3.9 0 0 1-3.723-.013 1.723 1.723 0 0 0-.353-.112.309.309 0 0 1-.239-.3v-1.38a.308.308 0 0 1 .363-.3 3.977 3.977 0 0 1 1.222.4l.023.014a1.944 1.944 0 0 0 1.73-.01 3.673 3.673 0 0 1 1.854-.469z" transform="translate(0 -207.122)" style="fill:#2a2a2e"/>
        <path data-name="Path 4340" d="M324.377 214.078v1.384a.307.307 0 0 1-.232.3 1.5 1.5 0 0 0-.35.121 3.9 3.9 0 0 1-3.725-.015 1.953 1.953 0 0 0-1.67-.02v-2.063a3.894 3.894 0 0 1 2.671.388 1.932 1.932 0 0 0 1.753 0 4.033 4.033 0 0 1 1.186-.392.308.308 0 0 1 .367.297z" transform="translate(-308.571 -207.105)" style="fill:#2a2a2e"/>
    </g>
    <g data-name="Group 6191">
        <path data-name="Path 4341" d="M.363 65.742a4.668 4.668 0 0 1 .994.282v2.141c-.663-.19-.585-.313-1.118-.439a.309.309 0 0 1-.239-.3v-1.38a.308.308 0 0 1 .363-.3z" transform="translate(0 -63.708)" style="fill:#2a2a2e"/>
        <path data-name="Path 4342" d="M171.308 64.077a3.7 3.7 0 0 1 1.867-.468v1.967a1.73 1.73 0 0 0-.871.2l-.021.012a3.9 3.9 0 0 1-3.723-.012 1.747 1.747 0 0 0-.856-.2h-.015V63.61h.015a3.684 3.684 0 0 1 1.872.48 1.954 1.954 0 0 0 1.712 0z" transform="translate(-162.513 -61.645)" style="fill:#2a2a2e"/>
        <path data-name="Path 4343" d="M470.434 66.114V67.5a.308.308 0 0 1-.232.3 1.52 1.52 0 0 0-.35.121 3.246 3.246 0 0 1-.742.314V66.09a4.76 4.76 0 0 1 .958-.279.308.308 0 0 1 .366.303z" transform="translate(-454.628 -63.774)" style="fill:#2a2a2e"/>
    </g>
    <g data-name="Group 6192">
        <path data-name="Path 4344" d="M.363 360.935a4.684 4.684 0 0 1 .994.282v2.141a3.235 3.235 0 0 1-.766-.328 1.709 1.709 0 0 0-.353-.112.309.309 0 0 1-.239-.3v-1.38a.308.308 0 0 1 .364-.303z" transform="translate(0 -349.788)" style="fill:#2a2a2e"/>
        <path data-name="Path 4345" d="M171.308 359.268a3.709 3.709 0 0 1 1.867-.468v1.967a1.73 1.73 0 0 0-.871.2l-.021.012a3.9 3.9 0 0 1-3.723-.012 1.747 1.747 0 0 0-.856-.2h-.015V358.8h.015a3.684 3.684 0 0 1 1.872.48 1.954 1.954 0 0 0 1.712 0z" transform="translate(-162.513 -347.723)" style="fill:#2a2a2e"/>
        <path data-name="Path 4346" d="M470.434 361.3v1.384a.308.308 0 0 1-.232.3c-.5.125-.433.245-1.092.435v-2.139a4.763 4.763 0 0 1 .958-.279.308.308 0 0 1 .366.299z" transform="translate(-454.628 -349.852)" style="fill:#2a2a2e"/>
    </g>
</svg>
