<svg xmlns="http://www.w3.org/2000/svg" width="85" height="85" viewBox="0 0 85 85">
    <g data-name="Group 6319">
        <g data-name="Rectangle 1367" style="fill:#f1ffea;stroke:#01896a;stroke-linecap:round;stroke-width:1.5px;stroke-dasharray:7 6">
            <rect width="85" height="85" rx="4" style="stroke:none"/>
            <rect x=".75" y=".75" width="83.5" height="83.5" rx="3.25" style="fill:none"/>
        </g>
        <g data-name="Iconly/Bold/Paper Plus">
            <path data-name="Paper Plus" d="M7.177 33.171A7.214 7.214 0 0 1 0 25.938V6.926A6.9 6.9 0 0 1 6.858 0h8.119a.7.7 0 0 1 .7.707v4.944a5.13 5.13 0 0 0 5.079 5.129c.651 0 1.222 0 1.724.009.4 0 .736.007 1.043.007.217 0 .5 0 .8-.007.349 0 .745-.009 1.1-.009a.689.689 0 0 1 .684.691v14.8a6.876 6.876 0 0 1-6.842 6.9zm-.5-13.835A1.419 1.419 0 0 0 8.1 20.751h3.256v3.308a1.41 1.41 0 1 0 2.821 0v-3.308h3.275a1.424 1.424 0 0 0 0-2.848h-3.279v-3.309a1.41 1.41 0 1 0-2.821 0V17.9H8.1a1.429 1.429 0 0 0-1.424 1.437zm14.281-10.8a3.1 3.1 0 0 1-3.067-3.1V1.392A.726.726 0 0 1 19.14.879l6.122 6.43a.733.733 0 0 1-.522 1.24h-1c-.983.001-1.997-.004-2.782-.012z" style="fill:#01896a" transform="translate(28.572 25.312)"/>
        </g>
    </g>
</svg>
