
<svg xmlns="http://www.w3.org/2000/svg" width="30" height="30" viewBox="0 0 30 30">
    <g data-name="Group 5255" transform="translate(-10507 6600)">
        <rect data-name="Rectangle 1490" width="30" height="30" rx="15" transform="translate(10507 -6600)" style="fill:#f1f3f4"/>
        <g data-name="Iconly/Light/Edit">
            <path data-name="Stroke 1" d="M0 .557h5.641" transform="translate(10523.359 -6579.21)" style="fill:none;stroke:#63636a;stroke-linecap:round;stroke-linejoin:round;stroke-miterlimit:10;stroke-width:1.5px"/>
            <path data-name="Stroke 3" d="M7.607.613A1.757 1.757 0 0 1 10.03.379l1.348 1.038a1.643 1.643 0 0 1 .56 2.3c-.027.042-7.418 9.2-7.418 9.2a1.326 1.326 0 0 1-1.018.488l-2.831.035-.637-2.672A1.247 1.247 0 0 1 .28 9.693z" transform="translate(10515 -6592.096)" style="fill:none;stroke:#63636a;stroke-linecap:round;stroke-linejoin:round;stroke-miterlimit:10;stroke-width:1.5px"/>
            <path data-name="Stroke 5" d="m0 0 4.241 3.227" transform="translate(10521.238 -6589.783)" style="fill:none;stroke:#63636a;stroke-linecap:round;stroke-linejoin:round;stroke-miterlimit:10;stroke-width:1.5px"/>
        </g>
    </g>
</svg>
