<svg xmlns="http://www.w3.org/2000/svg" width="15.504" height="15.504" viewBox="0 0 15.504 15.504">
    <g data-name="Group 6188">
        <path data-name="Path 4328" d="M7.752 0a7.752 7.752 0 0 0 0 15.5 1.29 1.29 0 0 0 1.292-1.292 1.263 1.263 0 0 0-.336-.866 1.294 1.294 0 0 1 .969-2.142H11.2a4.308 4.308 0 0 0 4.3-4.309C15.5 3.084 12.033 0 7.752 0zM3.015 7.752A1.292 1.292 0 1 1 4.307 6.46a1.29 1.29 0 0 1-1.292 1.292zM5.6 4.307a1.292 1.292 0 1 1 1.291-1.292A1.29 1.29 0 0 1 5.6 4.307zm4.307 0A1.292 1.292 0 1 1 11.2 3.015a1.29 1.29 0 0 1-1.295 1.292zm2.584 3.445a1.292 1.292 0 1 1 1.29-1.292 1.29 1.29 0 0 1-1.292 1.292z" style="fill:#2a2a2e"/>
    </g>
</svg>
