<svg xmlns="http://www.w3.org/2000/svg" width="36.327" height="35.628" viewBox="0 0 36.327 35.628">
    <g data-name="Group 6313">
        <path data-name="Path 4386" d="M181.63 112.014a3.358 3.358 0 0 1-2.84-1.68c-1.056-1.629-.778-3.474.76-5.063s4.726-3.11 8.547-4.341a74.546 74.546 0 0 0 3.539-7.783 71.825 71.825 0 0 0 1.643-4.651c-1.91-3.5-3.045-6.76-2.743-8.876.307-2.147 1.911-3.356 4.295-3.225.708.038 2.4.408 2.8 3.008.311 1.988-.212 5.2-1.263 8.854a55.134 55.134 0 0 0 7.378 9.7c4.029-.246 7.443.048 9.16 1.084a2.905 2.905 0 0 1 1.413 3.537 3.874 3.874 0 0 1-4.871 2.809c-1.935-.452-4.333-2.141-6.765-4.486a67.526 67.526 0 0 0-12.553 2.328c-2.411 4.327-5.017 7.695-7.2 8.531a3.622 3.622 0 0 1-1.3.254zm-.408-3.255c.242.372.375.365.437.357.923-.094 2.46-1.687 4.215-4.38a19.619 19.619 0 0 0-3.076 1.616c-2.193 1.453-1.727 2.171-1.575 2.407zm25.536-8.048a9.442 9.442 0 0 0 3.352 1.855c.752.175 1.138.086 1.458-.889-.427-.648-2.246-.96-4.809-.966zm-11.513-8.938a79.077 79.077 0 0 1-3.36 8.081 70.486 70.486 0 0 1 8.315-1.561 57.431 57.431 0 0 1-4.954-6.52zm-.7-12.537c-1.029 0-1.083.386-1.142.793a9.088 9.088 0 0 0 .968 4.35c.655-3.129.522-4.785.2-5.143z" transform="translate(-178.159 -76.386)" style="fill:red"/>
    </g>
</svg>
