<svg id="shorts" xmlns="http://www.w3.org/2000/svg" width="18.192" height="18.192">
    <defs>
        <style>
            .cls-2{fill:#daf8e5}
        </style>
    </defs>
    <path id="Path_414" data-name="Path 414" d="M26.676 22.548v7.58a1.516 1.516 0 0 1-1.516 1.516H21a.759.759 0 0 1-.743-.6l-.735-5.515a.381.381 0 0 0-.379-.33h-1.608a.381.381 0 0 0-.379.33l-.735 5.515a.759.759 0 0 1-.743.6h-4.162A1.516 1.516 0 0 1 10 30.128v-7.58a4.857 4.857 0 0 0 4.711-3.676l.216-.872h1.9v4.548h1.137a1.9 1.9 0 0 0 1.9-1.9V18h1.9l.216.872a4.857 4.857 0 0 0 4.711 3.676z" transform="translate(-9.242 -14.21)" style="fill:#9ee2b6"/>
    <path id="Path_415" data-name="Path 415" class="cls-2" d="M45.927 18v4.548a4.857 4.857 0 0 1-4.711-3.676L41 18z" transform="translate(-28.493 -14.21)"/>
    <path id="Path_416" data-name="Path 416" class="cls-2" d="M44.064 10v3.032H38V10z" transform="translate(-26.63 -9.242)"/>
    <path id="Path_417" data-name="Path 417" class="cls-2" d="M30.548 10v3.032H26V10z" transform="translate(-19.178 -9.242)"/>
    <path id="Path_418" data-name="Path 418" class="cls-2" d="M31.032 18v2.653a1.9 1.9 0 0 1-1.9 1.9H28V18z" transform="translate(-20.42 -14.21)"/>
    <path id="Path_419" data-name="Path 419" class="cls-2" d="M16.064 10v3.032H10V10z" transform="translate(-9.242 -9.242)"/>
    <path id="Path_420" data-name="Path 420" class="cls-2" d="m14.927 18-.216.872A4.857 4.857 0 0 1 10 22.548V18z" transform="translate(-9.242 -14.21)"/>
    <path id="Path_421" data-name="Path 421" d="M25.434 8H8.758A.758.758 0 0 0 8 8.758v15.16a2.276 2.276 0 0 0 2.274 2.274h4.161A1.508 1.508 0 0 0 15.919 25c0-.02.008-.04.011-.06l.691-5.187h.95l.692 5.187c0 .02.006.04.011.06a1.508 1.508 0 0 0 1.483 1.2h4.161a2.276 2.276 0 0 0 2.274-2.274V8.758A.758.758 0 0 0 25.434 8zM9.516 12.548h3.2a4.091 4.091 0 0 1-3.2 2.96zm6.822 0h1.516v1.9a1.138 1.138 0 0 1-1.137 1.137h-.379zm-.758-1.516V9.516h3.032v1.516zm9.1 4.476a4.09 4.09 0 0 1-3.2-2.96h3.2zm0-4.476h-4.552V9.516h4.548zM14.064 9.516v1.516H9.516V9.516zm9.854 15.16h-4.161l-.728-5.459a1.132 1.132 0 0 0-1.13-.982h-1.606a1.133 1.133 0 0 0-1.13.987l-.728 5.456h-4.161a.759.759 0 0 1-.758-.758v-6.88a5.606 5.606 0 0 0 4.689-4.2l.073-.3h.544v3.79a.758.758 0 0 0 .758.758h1.137a2.656 2.656 0 0 0 2.653-2.653v-1.9h.544l.074.3a5.605 5.605 0 0 0 4.688 4.194v6.878a.759.759 0 0 1-.758.769z" transform="translate(-8 -8)" style="fill:#01896a"/>
</svg>
