<svg id="sock" xmlns="http://www.w3.org/2000/svg" width="12.128" height="18.191">
    <defs>
        <style>
            .cls-1{fill:#daf8e5}
        </style>
    </defs>
    <path id="Path_402" data-name="Path 402" class="cls-1" d="M41.032 31.02v2.418a1.509 1.509 0 0 1-.478 1.1l-1.7 1.6-.095-.1a3.029 3.029 0 0 1 2.061-5.018z" transform="translate(-29.662 -22.295)"/>
    <path id="Path_403" data-name="Path 403" d="M28.612 17v5.314H28.4a3.029 3.029 0 0 0-2.062 5.026l.095.1-2.846 2.683a3.42 3.42 0 0 1-4.525.091 2.958 2.958 0 0 1-.1-4.45l3.589-3.411V17h6.064z" transform="translate(-17.242 -13.589)" style="fill:#9ee2b6"/>
    <path id="Path_404" data-name="Path 404" class="cls-1" d="M36.064 10v2.653H30V10z" transform="translate(-24.694 -9.242)"/>
    <path id="Path_405" data-name="Path 405" d="M20.032 26.191a4.125 4.125 0 0 0 2.833-1.107l4.546-4.284a2.277 2.277 0 0 0 .717-1.655V8.758A.758.758 0 0 0 27.37 8h-6.064a.758.758 0 0 0-.758.758v7.679L17.2 19.621a3.719 3.719 0 0 0-1.2 2.728 3.776 3.776 0 0 0 1.324 2.851 4.14 4.14 0 0 0 2.708.991zm6.341-6.5-1.06 1a2.255 2.255 0 0 1-.217-.944 2.282 2.282 0 0 1 1.516-2.142v1.536a.749.749 0 0 1-.239.553zm.239-10.178v1.137h-4.548V9.516zm-8.373 11.21 3.589-3.411a.757.757 0 0 0 .236-.549v-4.594h4.548v3.871a3.777 3.777 0 0 0-2.442 5.73l-2.345 2.21a2.648 2.648 0 0 1-3.51.07 2.2 2.2 0 0 1-.076-3.328z" transform="translate(-16 -8)" style="fill:#01896a"/>
</svg>
