<svg data-name="Iconly/Bold/Image 2" xmlns="http://www.w3.org/2000/svg" width="23" height="23" viewBox="0 0 23 23">
    <path data-name="Image 2" d="M6.483 23a7.638 7.638 0 0 1-1.244-.109l-.039-.006a6.017 6.017 0 0 1-3.758-2.153c-.006 0-.008 0-.012-.01a.062.062 0 0 0-.008-.011A7.128 7.128 0 0 1 0 16.218V6.771C0 2.721 2.605 0 6.483 0h10.024C20.391 0 23 2.721 23 6.771v9.447a2.65 2.65 0 0 1-.022.294 6.757 6.757 0 0 0-.019.2v.117c0 .058 0 .118-.008.176a.617.617 0 0 1-.01.063.452.452 0 0 0-.011.065 7.716 7.716 0 0 1-.178 1.04 4.456 4.456 0 0 1-.052.2l-.018.062a6.968 6.968 0 0 1-.33.928c-.024.054-.05.106-.076.158-.016.03-.029.058-.042.086a6.182 6.182 0 0 1-.468.8c-.035.05-.071.1-.108.141l-.063.081A5.651 5.651 0 0 1 21 21.3c-.042.04-.088.078-.132.114s-.061.049-.09.075a6.033 6.033 0 0 1-.7.53 2.263 2.263 0 0 1-.168.09c-.038.019-.076.037-.113.058a6.007 6.007 0 0 1-.79.383 2.125 2.125 0 0 1-.214.063c-.049.013-.1.026-.148.041l-.087.027a5.974 5.974 0 0 1-.756.2 4.319 4.319 0 0 1-.483.048c-.072.005-.145.009-.216.016l-.23.024a3 3 0 0 1-.368.03zM1.605 6.771v9.447a6.128 6.128 0 0 0 .443 2.344l.412-.5c.647-.79 1.853-2.257 1.862-2.267a4.159 4.159 0 0 1 3.042-1.7 3.116 3.116 0 0 1 1.208.254A7.423 7.423 0 0 1 9.733 15l.1.066a2.678 2.678 0 0 0 1.364.618h.085a1.2 1.2 0 0 0 .472-.165A15.52 15.52 0 0 0 14.2 12.5l.123-.173a3.846 3.846 0 0 1 3.012-1.612 3.431 3.431 0 0 1 1.783.507c.224.134 1.765 1.21 2.278 1.646v-6.1c0-3.139-1.919-5.167-4.888-5.167H6.483C3.52 1.6 1.605 3.632 1.605 6.771zm3.064 1.271a2.765 2.765 0 0 1-.068-.6 2.876 2.876 0 0 1 5.751.053 2.869 2.869 0 0 1-5.682.551z" style="fill:#9797a0"/>
</svg>
