<svg xmlns="http://www.w3.org/2000/svg" width="17.109" height="17.109" viewBox="0 0 17.109 17.109">
    <path data-name="Path 4347" d="M419.332 387.872a9.067 9.067 0 0 1-.7.927h.137a1.109 1.109 0 1 1 0 2.219h-.537a.5.5 0 0 0 0 1h.537a2.112 2.112 0 0 0 .561-4.148z" transform="translate(-403.774 -374.911)" style="fill:#2a2a2e"/>
    <path data-name="Path 4348" d="M94.267 81.9a8.038 8.038 0 0 0 1.145.733V71.006l-1.145-1.145z" transform="translate(-91.117 -67.526)" style="fill:#2a2a2e"/>
    <path data-name="Path 4349" d="M115.833 30.455 108 22.627a8.018 8.018 0 0 0-1.034.585l7.243 7.243z" transform="translate(-103.395 -21.871)" style="fill:#2a2a2e"/>
    <path data-name="Path 4350" d="M158.533 145.2a7.944 7.944 0 0 0 1.145.32v-10.247l-1.145-1.145z" transform="translate(-153.235 -129.646)" style="fill:#2a2a2e"/>
    <path data-name="Path 4351" d="m178.274 10.46-8.52-8.52a7.958 7.958 0 0 0-1.326.293l8.227 8.227z" transform="translate(-162.8 -1.875)" style="fill:#2a2a2e"/>
    <path data-name="Path 4352" d="M222.8 352.305h6.939a8.04 8.04 0 0 0 .733-1.145H222.8z" transform="translate(-215.355 -339.425)" style="fill:#2a2a2e"/>
    <path data-name="Path 4353" d="M222.8 200.35h1.955l-1.955-1.95z" transform="translate(-215.355 -191.765)" style="fill:#2a2a2e"/>
    <path data-name="Path 4354" d="M222.8 417.553c.189.013.38.021.573.021a7.987 7.987 0 0 0 5.455-2.148H222.8z" transform="translate(-215.355 -401.544)" style="fill:#2a2a2e"/>
    <path data-name="Path 4355" d="M2.148 87.428v-10.91a8 8 0 0 0 0 10.91z" transform="translate(0 -73.961)" style="fill:#2a2a2e"/>
    <path data-name="Path 4356" d="m248.607 0 7.722 7.722A8.028 8.028 0 0 0 248.607 0z" transform="translate(-240.299)" style="fill:#2a2a2e"/>
    <path data-name="Path 4357" d="M231.235 286.893H222.8v1.145h8.115a7.942 7.942 0 0 0 .32-1.145z" transform="translate(-215.355 -277.306)" style="fill:#2a2a2e"/>
</svg>
