<svg xmlns="http://www.w3.org/2000/svg" width="99.862" height="99.228" viewBox="0 0 99.862 99.228">
    <defs>
        <filter id="Path_3420" x="55.003" y="37.03" width="44.86" height="62.197" filterUnits="userSpaceOnUse">
            <feOffset dy="1"/>
            <feGaussianBlur result="blur"/>
            <feFlood flood-opacity=".102"/>
            <feComposite operator="in" in2="blur"/>
            <feComposite in="SourceGraphic"/>
        </filter>
        <filter id="Path_3427" x="0" y="37.03" width="44.86" height="62.197" filterUnits="userSpaceOnUse">
            <feOffset dy="1"/>
            <feGaussianBlur result="blur-2"/>
            <feFlood flood-opacity=".102"/>
            <feComposite operator="in" in2="blur-2"/>
            <feComposite in="SourceGraphic"/>
        </filter>
        <filter id="Path_3433" x="19.002" y="12.232" width="60.882" height="79.779" filterUnits="userSpaceOnUse">
            <feOffset dy="2"/>
            <feGaussianBlur stdDeviation="1.5" result="blur-3"/>
            <feFlood flood-opacity=".129"/>
            <feComposite operator="in" in2="blur-3"/>
            <feComposite in="SourceGraphic"/>
        </filter>
        <style>
            .cls-1{fill:#fff}.cls-2{fill:#fbbd08}.cls-5{fill:#a7e521}.cls-7{fill:#99d53b}.cls-8{fill:#476703}
        </style>
    </defs>
    <g id="content" transform="translate(0 -13.569)">
        <g id="Group_5153" data-name="Group 5153" transform="translate(0 19.569)">
            <g id="Group_5149" data-name="Group 5149" transform="translate(0 12.731)">
                <g id="Group_5145" data-name="Group 5145">
                    <g id="Group_5138" data-name="Group 5138" transform="translate(0 18.299)">
                        <g id="Group_5134" data-name="Group 5134" transform="translate(55.003)">
                            <g id="Group_5133" data-name="Group 5133">
                                <g transform="translate(-55 -37.03)" style="filter:url(#Path_3420)">
                                    <path id="Path_3420-2" data-name="Path 3420" class="cls-1" d="M326.862 180.529V238a1.863 1.863 0 0 1-1.862 1.861h-41.13A1.864 1.864 0 0 1 282 238v-57.47a1.866 1.866 0 0 1 1.865-1.865H325a1.865 1.865 0 0 1 1.862 1.864z" transform="translate(-227 -141.63)"/>
                                </g>
                                <path id="Path_3424" data-name="Path 3424" class="cls-2" d="M326.862 180.529v8.771H282v-8.773a1.866 1.866 0 0 1 1.865-1.865H325a1.865 1.865 0 0 1 1.862 1.867z" transform="translate(-282.002 -178.664)"/>
                                <path id="Path_3426" data-name="Path 3426" d="M478.21 180.526v8.774h-6.322v-8.773a1.865 1.865 0 0 0-1.864-1.864h6.322a1.864 1.864 0 0 1 1.864 1.863z" transform="translate(-433.352 -178.662)" style="fill:#ebaf00"/>
                            </g>
                        </g>
                        <g id="Group_5137" data-name="Group 5137">
                            <g id="Group_5136" data-name="Group 5136">
                                <g transform="translate(0 -37.03)" style="filter:url(#Path_3427)">
                                    <path id="Path_3427-2" data-name="Path 3427" class="cls-1" d="M44.86 180.529V238a1.864 1.864 0 0 1-1.86 1.861H1.865A1.863 1.863 0 0 1 0 238v-57.47a1.865 1.865 0 0 1 1.865-1.865H43a1.866 1.866 0 0 1 1.86 1.864z" transform="translate(0 -141.63)"/>
                                </g>
                                <path id="Path_3431" data-name="Path 3431" class="cls-2" d="M44.859 189.3H0v-8.77a1.864 1.864 0 0 1 1.864-1.864h41.131a1.864 1.864 0 0 1 1.864 1.864v8.77z" transform="translate(0 -178.665)"/>
                                <path id="Path_3432" data-name="Path 3432" d="M196.206 180.526v8.774h-6.322v-8.773a1.865 1.865 0 0 0-1.864-1.864h6.322a1.865 1.865 0 0 1 1.864 1.863z" transform="translate(-151.348 -178.662)" style="fill:#20bfd5"/>
                            </g>
                        </g>
                    </g>
                    <g id="Group_5144" data-name="Group 5144" transform="translate(23.501 -4)">
                        <g id="Group_5140" data-name="Group 5140">
                            <g transform="translate(-23.5 -14.73)" style="filter:url(#Path_3433)">
                                <path id="Path_3433-2" data-name="Path 3433" class="cls-1" d="M170.22 155.625h-47.57a2.156 2.156 0 0 1-2.156-2.156V87a2.156 2.156 0 0 1 2.156-2.156h47.57A2.156 2.156 0 0 1 172.376 87v66.467a2.156 2.156 0 0 1-2.156 2.158z" transform="translate(-96.99 -70.11)"/>
                            </g>
                            <path id="Path_3436" data-name="Path 3436" class="cls-5" d="M172.372 87v10.148H120.49V87a2.156 2.156 0 0 1 2.156-2.156h47.57A2.155 2.155 0 0 1 172.372 87z" transform="translate(-120.49 -84.844)"/>
                            <g id="Group_5139" data-name="Group 5139" transform="translate(32.87)">
                                <path id="Path_3438" data-name="Path 3438" d="M347.419 87v10.144h-7.312V87a2.156 2.156 0 0 0-2.156-2.156h7.312A2.156 2.156 0 0 1 347.419 87z" transform="translate(-328.407 -84.841)" style="fill:#8dcc05"/>
                            </g>
                        </g>
                        <g id="Group_5143" data-name="Group 5143" transform="translate(12.346 38.39)">
                            <path id="Path_3439" data-name="Path 3439" class="cls-7" d="M236.63 304.916a1.793 1.793 0 0 1-1.168-.431 4.94 4.94 0 0 0-3.162-1.091h-.016a4.938 4.938 0 0 0-3.152 1.072 1.8 1.8 0 0 1-2.321-2.752 8.467 8.467 0 0 1 5.472-1.92h.028a8.472 8.472 0 0 1 5.488 1.953 1.8 1.8 0 0 1-1.17 3.17z" transform="translate(-220.943 -293.133)"/>
                            <g id="Group_5142" data-name="Group 5142" transform="translate(-.001)">
                                <g id="Group_5141" data-name="Group 5141">
                                    <path id="Path_3440" data-name="Path 3440" class="cls-7" d="M205.538 274.807h-.01a1.8 1.8 0 0 1-.011-3.6h.031a1.8 1.8 0 0 1-.01 3.6z" transform="translate(-203.727 -271.206)"/>
                                </g>
                            </g>
                        </g>
                    </g>
                </g>
                <g id="Group_5148" data-name="Group 5148" transform="translate(29.662 .632)">
                    <g id="Group_5146" data-name="Group 5146" transform="translate(.002)">
                        <path id="Path_3441" data-name="Path 3441" class="cls-8" d="M153.607 111.606h-.007a1.515 1.515 0 0 1-1.509-1.515 1.5 1.5 0 0 1 1.5-1.5h.027a1.507 1.507 0 0 1-.008 3.014z" transform="translate(-152.09 -108.592)"/>
                    </g>
                    <g id="Group_5147" data-name="Group 5147">
                        <path id="Path_3442" data-name="Path 3442" class="cls-8" d="M153.6 111.608a1.515 1.515 0 0 1-1.516-1.507 1.5 1.5 0 0 1 1.5-1.507h.019a1.507 1.507 0 0 1 0 3.014z" transform="translate(-152.08 -108.594)"/>
                        <path id="Path_3443" data-name="Path 3443" class="cls-8" d="M176.968 111.608a1.515 1.515 0 0 1-1.516-1.507 1.5 1.5 0 0 1 1.5-1.507h.019a1.507 1.507 0 0 1 0 3.014z" transform="translate(-170.893 -108.594)"/>
                        <path id="Path_3444" data-name="Path 3444" class="cls-8" d="M200.343 111.608a1.515 1.515 0 0 1-1.516-1.507 1.5 1.5 0 0 1 1.5-1.507h.019a1.507 1.507 0 0 1 0 3.014z" transform="translate(-189.709 -108.594)"/>
                    </g>
                </g>
            </g>
            <g id="Group_5150" data-name="Group 5150" transform="translate(9.121)">
                <path id="Path_3445" data-name="Path 3445" class="cls-2" d="M53.075 109.033a1.507 1.507 0 0 0-2.131 0l-.8.8-.8-.8a1.507 1.507 0 0 0-2.131 2.131l.8.8-.8.8a1.507 1.507 0 1 0 2.131 2.131l.8-.8.8.8a1.507 1.507 0 1 0 2.131-2.131l-.8-.8.8-.8a1.507 1.507 0 0 0 0-2.131z" transform="translate(-46.765 -91.228)"/>
                <path id="Path_3446" data-name="Path 3446" class="cls-2" d="m439.067 102.389.8-.8a1.507 1.507 0 0 0-2.131-2.131l-.8.8-.8-.8a1.507 1.507 0 0 0-2.136 2.128l.8.8-.8.8a1.507 1.507 0 1 0 2.131 2.131l.8-.8.8.8a1.507 1.507 0 1 0 2.131-2.131z" transform="translate(-358.119 -83.518)"/>
                <path id="Path_3447" data-name="Path 3447" class="cls-5" d="M243.182 20.011a1.507 1.507 0 0 0-2.131 0l-.8.8-.8-.8a1.507 1.507 0 1 0-2.131 2.131l.8.8-.8.8a1.507 1.507 0 1 0 2.131 2.131l.8-.8.8.8a1.507 1.507 0 1 0 2.131-2.131l-.8-.8.8-.8a1.506 1.506 0 0 0 0-2.131z" transform="translate(-199.793 -25.569)"/>
            </g>
        </g>
        <path id="Path_3452" data-name="Path 3452" class="cls-7" d="M289.611 274.807h-.01a1.8 1.8 0 0 1-.011-3.6h.031a1.8 1.8 0 0 1-.01 3.6z" transform="translate(-232.365 -204.516)"/>
    </g>
</svg>
