<svg data-name="Iconly/Bold/Paper Plus" xmlns="http://www.w3.org/2000/svg" width="20" height="23.5" viewBox="0 0 20 23.5">
    <path data-name="Paper Plus" d="M5.5 23.5A5.523 5.523 0 0 1 0 17.965V5.3A5.283 5.283 0 0 1 5.254 0h6.22a.539.539 0 0 1 .536.541v3.783a3.927 3.927 0 0 0 3.89 3.924c.5 0 .935 0 1.319.007h.806c.166 0 .383 0 .613-.006.268 0 .572-.006.842-.006a.527.527 0 0 1 .52.534v9.447a5.265 5.265 0 0 1-5.242 5.276zm.187-9.564a.953.953 0 0 0 .955.95H8.83v2.223a.949.949 0 1 0 1.9 0v-2.223h2.2a.957.957 0 0 0 0-1.914h-2.2V10.75a.949.949 0 1 0-1.9 0v2.222H6.639a.96.96 0 0 0-.954.964zm10.371-7.4a2.371 2.371 0 0 1-2.35-2.37v-3.1a.556.556 0 0 1 .958-.393l4.689 4.92a.56.56 0 0 1-.4.948h-.782c-.749 0-1.52-.003-2.117-.009z" style="fill:#9797a0"/>
</svg>
