<svg xmlns="http://www.w3.org/2000/svg" width="17.58" height="14.837" viewBox="0 0 17.58 14.837">
    <path data-name="Path 4329" d="M32.484.308 32.159 0l-7.8 5.064.5.5c.193.193 4.762 4.72 8.371 4.72h.17l8.538-5.692h-1.88c-3.144 0-7.529-4.241-7.573-4.283z" transform="translate(-24.357)" style="fill:#2a2a2e"/>
    <path data-name="Path 4331" d="m37.916 220.32-4.172 2.78h-.517c-2.417 0-5.063-1.649-6.9-3.072l-1.97 1.272.5.5c.193.193 4.762 4.72 8.371 4.72h.172l8.538-5.692h-1.88a5.744 5.744 0 0 1-2.142-.508z" transform="translate(-24.357 -211.68)" style="fill:#2a2a2e"/>
</svg>
