<svg id="dress" xmlns="http://www.w3.org/2000/svg" width="13.644" height="18.192">
    <defs>
        <style>
            .cls-2{fill:#ffe8e5}
        </style>
    </defs>
    <g id="Group_78" data-name="Group 78" transform="translate(.758 3.411)">
        <path id="Path_395" data-name="Path 395" d="M19.032 35.37H16a12.877 12.877 0 0 1 .777-4.412l2.123-5.832a.784.784 0 0 0 .133.011c.838 0 3.032-.3 3.032-1.137 0 .838 2.194 1.137 3.032 1.137a.784.784 0 0 0 .133-.011l2.122 5.833a12.877 12.877 0 0 1 .777 4.412h-9.1z" transform="translate(-16 -21.347)" style="fill:#ffc9c1"/>
        <path id="Path_396" data-name="Path 396" class="cls-2" d="M36.548 18.9a1.952 1.952 0 0 1-1.383 1.884.784.784 0 0 1-.133.011c-.838 0-3.032-.3-3.032-1.137A4.183 4.183 0 0 1 34.653 17a2.243 2.243 0 0 1 1.895 1.9z" transform="translate(-25.936 -17)"/>
        <path id="Path_397" data-name="Path 397" class="cls-2" d="M21.9 17a4.183 4.183 0 0 1 2.653 2.653c0 .838-2.194 1.137-3.032 1.137a.784.784 0 0 1-.133-.011A1.952 1.952 0 0 1 20 18.9a2.243 2.243 0 0 1 1.9-1.9z" transform="translate(-18.484 -17)"/>
    </g>
    <path id="Path_398" data-name="Path 398" d="M14.758 26.192h12.128a.758.758 0 0 0 .758-.758 13.594 13.594 0 0 0-.822-4.67l-1.88-5.164a2.949 2.949 0 0 0 1.186-2.292 3.011 3.011 0 0 0-1.9-2.5v-2.05a.758.758 0 1 0-1.516 0v2.1a5.787 5.787 0 0 0-1.9 1.577 5.787 5.787 0 0 0-1.9-1.577v-2.1a.758.758 0 0 0-1.516 0v2.05a3.01 3.01 0 0 0-1.9 2.5A2.964 2.964 0 0 0 16.7 15.6l-1.877 5.16A13.59 13.59 0 0 0 14 25.434a.758.758 0 0 0 .758.758zm8.717-14.023a1.58 1.58 0 0 1 1.137 1.137c0 .475-.393 1.089-.758 1.137a5.455 5.455 0 0 1-2.249-.468 4.314 4.314 0 0 1 1.87-1.806zm-5.318 0a4.281 4.281 0 0 1 1.882 1.806 5.426 5.426 0 0 1-2.258.464h-.024c-.332-.044-.725-.657-.725-1.132a1.585 1.585 0 0 1 1.125-1.138zm-1.91 9.113 1.943-5.339a6.27 6.27 0 0 0 2.632-.676 6.27 6.27 0 0 0 2.632.676l1.944 5.34a12.062 12.062 0 0 1 .708 3.394h-1.494v-1.138a.758.758 0 0 0-1.516 0v1.137H21.58v-1.137a.758.758 0 0 0-1.516 0v1.137h-1.516v-1.137a.758.758 0 1 0-1.516 0v1.137H15.54a12.055 12.055 0 0 1 .708-3.394z" transform="translate(-14 -8)" style="fill:#ff5b43"/>
</svg>
