
<svg xmlns="http://www.w3.org/2000/svg" width="30" height="30" viewBox="0 0 30 30">
    <g data-name="Group 5258" transform="translate(-10507 6562)">
        <rect data-name="Rectangle 1491" width="30" height="30" rx="15" transform="translate(10507 -6562)" style="fill:#f1f3f4"/>
        <g data-name="Iconly/Light/Heart">
            <path data-name="Stroke 1" d="M.294 6.807C-.555 4.155.438 1.124 3.222.227a4.755 4.755 0 0 1 4.3.722 4.791 4.791 0 0 1 4.29-.722c2.784.9 3.783 3.928 2.935 6.58-1.322 4.2-7.226 7.442-7.226 7.442S1.661 11.06.294 6.807z" transform="translate(10514.479 -6553.721)" style="fill:none;stroke:#63636a;stroke-linecap:round;stroke-linejoin:round;stroke-miterlimit:10;stroke-width:1.5px"/>
            <path data-name="Stroke 3" d="M0 0a2.2 2.2 0 0 1 1.518 1.917" transform="translate(10525.167 -6550.792)" style="fill:none;stroke:#63636a;stroke-linecap:round;stroke-linejoin:round;stroke-miterlimit:10;stroke-width:1.5px"/>
        </g>
    </g>
</svg>
