<svg xmlns="http://www.w3.org/2000/svg" width="22.572" height="20.315">
    <g data-name="Group 639">
        <path d="M22.572 5.7v8.91a5.685 5.685 0 0 1-5.678 5.7H5.708A5.7 5.7 0 0 1 0 14.623V5.7a5.6 5.6 0 0 1 .351-1.942A5.7 5.7 0 0 1 5.708 0h11.156a5.7 5.7 0 0 1 5.387 3.829 5.227 5.227 0 0 1 .321 1.871z" style="fill:#27a88b"/>
        <path data-name="Path_34208" d="M22.572 7.7v6.928a5.685 5.685 0 0 1-5.678 5.7H5.708A5.7 5.7 0 0 1 0 14.641V7.7a5.6 5.6 0 0 1 .351-1.942A5.7 5.7 0 0 1 5.708 2h11.156a5.7 5.7 0 0 1 5.387 3.829 5.227 5.227 0 0 1 .321 1.871z" transform="translate(0 -2)" style="fill:#43bfa3"/>
        <path d="m21.9 3.839-.11.09c-2.077 1.614-8.8 7.016-8.8 7.016a3.182 3.182 0 0 1-4.013 0S2.3 5.552.221 3.939L0 3.768A5.7 5.7 0 0 1 5.357 0h11.155A5.7 5.7 0 0 1 21.9 3.839z" transform="translate(.352)" style="fill:#01896a"/>
    </g>
</svg>
