<svg xmlns="http://www.w3.org/2000/svg" width="45" height="45" viewBox="0 0 45 45">
    <g data-name="Group 6638">
        <g data-name="Ellipse 3279" style="stroke:#2a2a2e;fill:none">
            <circle cx="22.5" cy="22.5" r="22.5" style="stroke:none"/>
            <circle cx="22.5" cy="22.5" r="22" style="fill:none"/>
        </g>
        <g data-name="Iconly/Bold/Delete">
            <path data-name="Delete" d="M5.132 19.961A2.916 2.916 0 0 1 2.2 17.134c-.313-2.847-.836-9.577-.846-9.645a.791.791 0 0 1 .191-.558.708.708 0 0 1 .523-.231h13.871a.724.724 0 0 1 .523.234.745.745 0 0 1 .181.558c0 .068-.533 6.809-.837 9.645a2.918 2.918 0 0 1-3 2.827C11.515 19.99 10.249 20 9 20c-1.319 0-2.613-.01-3.868-.039zM.714 5.091A.73.73 0 0 1 0 4.357v-.38a.724.724 0 0 1 .714-.734H3.63a1.282 1.282 0 0 0 1.241-1.015l.152-.682A1.989 1.989 0 0 1 6.935 0h4.129a1.987 1.987 0 0 1 1.9 1.5l.163.73a1.28 1.28 0 0 0 1.241 1.016h2.916a.723.723 0 0 1 .716.731v.38a.73.73 0 0 1-.713.734z" style="fill:#2a2a2e" transform="translate(13.5 12.5)"/>
        </g>
    </g>
</svg>
