<svg xmlns="http://www.w3.org/2000/svg" width="30" height="30" viewBox="0 0 30 30">
    <g data-name="Group 6277">
        <path data-name="Rectangle 1827" style="fill:#fff" d="M0 0h30v30H0z"/>
        <path data-name="Path 4280" d="M131.109 60.51a1.072 1.072 0 0 0-1.512 0c-.351.372-8.6 9.25-8.6 15.332 0 7.274 5.855 7.344 9.353 7.344s9.353-.069 9.353-7.344c.003-6.082-8.243-14.959-8.594-15.332z" transform="translate(-115.351 -58.707)" style="fill:#099d7b"/>
        <path data-name="Path 4281" d="M265.353 75.842c0-6.082-8.246-14.959-8.6-15.332a1.038 1.038 0 0 0-.753-.31v22.985c3.5 0 9.353-.069 9.353-7.343z" transform="translate(-240.998 -58.707)" style="fill:#27a88b"/>
        <path data-name="Path 4286" d="M191.087 185.461a1.039 1.039 0 0 0-1.47 0l-2.383 2.383v-3.3l1.774-1.774a1.039 1.039 0 1 0-1.47-1.47l-1.344 1.344-1.344-1.344a1.039 1.039 0 1 0-1.469 1.47l1.774 1.774v3.3l-2.383-2.383a1.039 1.039 0 0 0-1.47 1.47l3.852 3.852v7.953a1.039 1.039 0 1 0 2.078 0v-7.953l3.852-3.852a1.039 1.039 0 0 0 .003-1.47z" transform="translate(-171.194 -171.139)" style="fill:#00745a"/>
        <path data-name="Path 4287" d="M257.039 198.737v-7.953l3.852-3.852a1.039 1.039 0 0 0-1.47-1.47l-2.383 2.383v-3.3l1.774-1.774a1.039 1.039 0 1 0-1.47-1.47L256 182.649v17.127a1.039 1.039 0 0 0 1.039-1.039z" transform="translate(-240.998 -171.14)" style="fill:#01896a"/>
    </g>
</svg>
