<svg xmlns="http://www.w3.org/2000/svg" width="18.192" height="18.192">
    <path data-name="Path 399" d="M23.644 17.58v9.1H13.032v-9.1H10v-3.032A4.547 4.547 0 0 1 14.548 10h.5l1.012 2.274a5.078 5.078 0 0 0 2.274 2.274 5.078 5.078 0 0 0 2.274-2.274L21.624 10h.5a4.547 4.547 0 0 1 4.548 4.548v3.032z" transform="translate(-9.242 -9.242)" style="fill:#ffc9c1"/>
    <path data-name="Path 400" d="m29.9 10-1.01 2.274a5.078 5.078 0 0 1-2.274 2.274 5.078 5.078 0 0 1-2.274-2.274L23.33 10z" transform="translate(-17.52 -9.242)" style="fill:#ffe8e5"/>
    <path data-name="Path 401" d="M20.886 8h-7.58A5.312 5.312 0 0 0 8 13.306v3.032a.758.758 0 0 0 .758.758h2.274v8.338a.758.758 0 0 0 .758.758H22.4a.758.758 0 0 0 .758-.758V17.1h2.274a.758.758 0 0 0 .758-.758v-3.036A5.312 5.312 0 0 0 20.886 8zm-1.671 1.516-.523 1.177a4.285 4.285 0 0 1-1.6 1.746 4.254 4.254 0 0 1-1.582-1.716l-.537-1.208zm5.461 6.064H23.16v-1.516a.758.758 0 1 0-1.516 0v10.612h-9.1V14.064a.758.758 0 1 0-1.516 0v1.516H9.516v-2.274a3.794 3.794 0 0 1 3.79-3.79h.012l.826 1.855a5.8 5.8 0 0 0 2.613 2.613.761.761 0 0 0 .678 0 5.82 5.82 0 0 0 2.628-2.644l.811-1.824h.012a3.794 3.794 0 0 1 3.79 3.79z" transform="translate(-8 -8)" style="fill:#ff5b43"/>
</svg>
