<svg xmlns="http://www.w3.org/2000/svg" width="25" height="25" viewBox="0 0 25 25">
    <g data-name="Group 6598">
        <path data-name="Polygon 1" d="M10.751 2.152a2.253 2.253 0 0 1 3.5 0l.007.008a2.253 2.253 0 0 0 2.447.721 2.253 2.253 0 0 1 2.937 1.883l.007.059a2.253 2.253 0 0 0 1.656 1.918l.047.013A2.253 2.253 0 0 1 22.8 9.912l-.043.088a2.253 2.253 0 0 0 .357 2.494l.061.068a2.253 2.253 0 0 1-.495 3.434l-.063.039a2.253 2.253 0 0 0-1.046 2.3l.014.082a2.253 2.253 0 0 1-2.285 2.622h-.023a2.253 2.253 0 0 0-2.138 1.379l-.013.03a2.253 2.253 0 0 1-3.354.983 2.253 2.253 0 0 0-2.554 0 2.253 2.253 0 0 1-3.354-.983l-.013-.03a2.253 2.253 0 0 0-2.138-1.379H5.7a2.253 2.253 0 0 1-2.282-2.628l.014-.082a2.253 2.253 0 0 0-1.046-2.3l-.063-.039a2.253 2.253 0 0 1-.495-3.434l.061-.068A2.253 2.253 0 0 0 2.243 10L2.2 9.912a2.253 2.253 0 0 1 1.447-3.158l.047-.013A2.253 2.253 0 0 0 5.35 4.823l.007-.059A2.253 2.253 0 0 1 8.293 2.88a2.253 2.253 0 0 0 2.447-.721z" style="fill:#01896a"/>
        <path data-name="Path 4501" d="m-417.343-6662.449 2.913 3.043 5.755-6.164" transform="translate(425.638 6675.36)" style="fill:none;stroke:#fff;stroke-linecap:round;stroke-linejoin:round;stroke-width:2px"/>
    </g>
</svg>
