<svg xmlns="http://www.w3.org/2000/svg" width="13.644" height="18.192">
    <path data-name="Path 422" d="M28.128 16.822v9.854H16v-9.854a1.9 1.9 0 0 0 1.9-1.9V10h2.653v5.306a1.516 1.516 0 0 0 3.032 0V10h2.653v4.927a1.889 1.889 0 0 0 1.9 1.9z" transform="translate(-15.242 -9.242)" style="fill:#9ee2b6"/>
    <path data-name="Path 423" d="M31.032 18.46v2.1a1.516 1.516 0 1 1-3.032 0v-2.1a5.717 5.717 0 0 0 3.032 0z" transform="translate(-22.694 -14.496)" style="fill:#daf8e5"/>
    <path data-name="Path 424" d="M14.758 26.192h12.128a.758.758 0 0 0 .758-.758V15.58a.758.758 0 0 0-.758-.758 1.132 1.132 0 0 1-1.137-1.137V8.758A.758.758 0 0 0 24.991 8h-2.653a.758.758 0 0 0-.758.758v2.592a5.008 5.008 0 0 1-1.516 0V8.758A.758.758 0 0 0 19.306 8h-2.653a.758.758 0 0 0-.758.758v4.927a1.138 1.138 0 0 1-1.137 1.137.758.758 0 0 0-.758.758v9.854a.758.758 0 0 0 .758.758zm6.064-13.265a6.486 6.486 0 0 0 .758-.047v1.184a.759.759 0 0 1-1.291.54.768.768 0 0 1-.225-.54V12.88a6.486 6.486 0 0 0 .758.047zm-5.306 3.3a2.658 2.658 0 0 0 1.9-2.543V9.516h1.137v4.548a2.274 2.274 0 1 0 4.548 0V9.516h1.137v4.169a2.647 2.647 0 0 0 1.9 2.544v8.448H15.516z" transform="translate(-14 -8)" style="fill:#01896a"/>
</svg>
