<svg xmlns="http://www.w3.org/2000/svg" width="36.712" height="34.419" viewBox="0 0 36.712 34.419">
    <path data-name="Path 4379" d="M273.209 105.244h-16.062A1.146 1.146 0 0 1 256 104.1V81.151A1.148 1.148 0 0 1 257.147 80h16.062a1.148 1.148 0 0 1 1.147 1.147V104.1a1.146 1.146 0 0 1-1.147 1.144z" transform="translate(-237.644 -75.414)" style="fill:#e5e9eb"/>
    <g data-name="Group 6312">
        <path data-name="Path 4380" d="M268.62 146.3h-11.473a1.147 1.147 0 0 1 0-2.295h11.473a1.147 1.147 0 1 1 0 2.295z" transform="translate(-237.644 -134.825)" style="fill:#1976d2"/>
        <path data-name="Path 4381" d="M268.62 210.3h-11.473a1.147 1.147 0 0 1 0-2.295h11.473a1.147 1.147 0 1 1 0 2.295z" transform="translate(-237.644 -194.236)" style="fill:#1976d2"/>
        <path data-name="Path 4382" d="M268.62 274.3h-11.473a1.147 1.147 0 1 1 0-2.294h11.473a1.147 1.147 0 1 1 0 2.294z" transform="translate(-237.644 -253.647)" style="fill:#1976d2"/>
        <path data-name="Path 4383" d="M268.62 338.3h-11.473a1.147 1.147 0 0 1 0-2.295h11.473a1.147 1.147 0 1 1 0 2.295z" transform="translate(-237.644 -313.058)" style="fill:#1976d2"/>
    </g>
    <path data-name="Path 4384" d="M20.235 16.262a1.129 1.129 0 0 0-.943-.246L.936 19.459A1.148 1.148 0 0 0 0 20.585v25.24a1.146 1.146 0 0 0 .936 1.127l18.356 3.442a1.1 1.1 0 0 0 .211.021 1.147 1.147 0 0 0 1.147-1.147V17.143a1.14 1.14 0 0 0-.415-.881z" transform="translate(0 -15.995)" style="fill:#1565c0"/>
    <path data-name="Path 4385" d="M74.316 187.58a1.148 1.148 0 0 1-1 1.01.992.992 0 0 1-.142.009 1.15 1.15 0 0 1-1.074-.743l-2.368-6.315-2.368 6.315a1.147 1.147 0 0 1-2.21-.243l-1.147-8.031a1.147 1.147 0 0 1 2.272-.324l.512 3.589 1.865-4.977a1.2 1.2 0 0 1 2.15 0l1.758 4.685.619-5.555a1.147 1.147 0 1 1 2.281.255z" transform="translate(-59.409 -164.506)" style="fill:#fafafa"/>
</svg>
