<svg xmlns="http://www.w3.org/2000/svg" width="183.191" height="158.061" viewBox="0 0 183.191 158.061">
    <g data-name="Group 5805">
        <g data-name="Group 5803">
            <path data-name="Path 4278" d="M52.12 2.836c50.628-9.108 140.869.35 108.624 78.879S25.38 145.83 7.767 108.475 1.494 11.944 52.12 2.836z" transform="rotate(-7 166.915 10.217)" style="fill:#f7f7f7"/>
            <path data-name="Path 4279" d="M108.6 0C88.713 17.705 129 9.3 119.378 18.324s-85.12 13.179-115.028.4S108.6 0 108.6 0z" transform="rotate(-6.02 1235.81 -354.946)" style="fill:#f7f7f7"/>
        </g>
        <g data-name="Group 5804">
            <g data-name="Group 5789">
                <path data-name="Path 4265" d="M311.077 247.233a21.85 21.85 0 1 0-32.126 10.781l1.078 5.055a1.941 1.941 0 0 0 3.059 1.151l4.142-3.091a21.858 21.858 0 0 0 23.847-13.896z" transform="translate(-181.974 -152.566)" style="fill:#fee265"/>
                <path data-name="Path 4266" d="M308.521 227.013v-.007a21.853 21.853 0 1 0-35.236 25.839 32.822 32.822 0 0 0 8.726-11.2 27.265 27.265 0 0 0 22.179-8.5 1.762 1.762 0 0 1 3.041.966 21.861 21.861 0 0 1-25.072 24.363l-2.686 2 .549 2.581a1.942 1.942 0 0 0 3.061 1.151l4.142-3.092a21.848 21.848 0 0 0 21.293-34.113z" transform="translate(-181.971 -152.565)" style="fill:#fdd330"/>
            </g>
            <g data-name="Group 5790">
                <path data-name="Path 4269" d="M94.382 103.669a32.656 32.656 0 1 0-39.266 31.986l4.976 7.765a1.941 1.941 0 0 0 3.268 0l4.976-7.765a32.667 32.667 0 0 0 26.046-31.986z" transform="translate(8.801 -35.823)" style="fill:#01896a"/>
                <path data-name="Path 4270" d="M204.273 116.67a32.668 32.668 0 0 1-26.046 31.987l-4.976 7.765a1.941 1.941 0 0 1-3.268 0l-2.839-4.429 4.753-7.416a32.662 32.662 0 0 0 14.111-57.227 32.653 32.653 0 0 1 18.265 29.32z" transform="translate(-101.09 -48.826)" style="fill:#00765b"/>
            </g>
            <g data-name="Group 5792">
                <path data-name="Path 4273" d="M107.722 221.5H87.195a1.577 1.577 0 1 1 0-3.154h20.527a1.577 1.577 0 1 1 0 3.154z" transform="translate(-28.053 -154.445)" style="fill:#c7ffdd"/>
                <path data-name="Path 4274" d="M107.722 251.677H87.195a1.577 1.577 0 1 1 0-3.154h20.527a1.577 1.577 0 1 1 0 3.154z" transform="translate(-28.053 -178.459)" style="fill:#c7ffdd"/>
                <path data-name="Path 4275" d="M107.722 281.848H87.195a1.577 1.577 0 0 1 0-3.154h20.527a1.577 1.577 0 0 1 0 3.154z" transform="translate(-28.053 -202.471)" style="fill:#c7ffdd"/>
                <path data-name="Path 4276" d="M98.522 173.712h-8.484a1.577 1.577 0 1 1 0-3.154h8.484a1.577 1.577 0 1 1 0 3.154z" transform="translate(-30.316 -116.407)" style="fill:#c7ffdd"/>
            </g>
            <g data-name="Group 5795" transform="translate(105.391 61.2)">
                <path data-name="Path 4277" d="m329.767 25.181-3.24-1.046a1.245 1.245 0 0 1-.82-1.507L331.536.922a1.244 1.244 0 0 1 1.584-.861l5.372 1.739a1.244 1.244 0 0 1 .782 1.625l-7.961 21.018a1.244 1.244 0 0 1-1.546.738z" transform="translate(-322.65)" style="fill:#ff7f00"/>
                <circle data-name="Ellipse 3215" cx="3.321" cy="3.321" r="3.321" transform="translate(0 28.079)" style="fill:#ff7f00"/>
            </g>
        </g>
    </g>
</svg>
