<svg xmlns="http://www.w3.org/2000/svg" width="198.008" height="129.823">
    <defs>
        <style>
            .cls-2,.cls-4{fill:#eaeaed}.cls-2{opacity:.997}.cls-4{stroke:#eaeaed}.cls-5{fill:#fae6ce}.cls-7{fill:#d84b25}.cls-11{fill:#e7af7f}.cls-12{fill:#393a5f}.cls-14{fill:#01896a}.cls-15{fill:#1c483e}.cls-16{fill:#fff}.cls-19{fill:#633a27}
        </style>
    </defs>
    <g id="Sleeping" transform="translate(.008)">
        <g id="Sleeping-2" data-name="Sleeping">
            <g id="Empty-State-6">
                <path id="Shape" d="m124.925 3229.353 9.965.563q117.079 6.668 113.965 9.024c-3.244 2.455-14.054 2.308-16.978 3.414l-.335.129c-3.2 1.25-11.367 4.872-14.41 4.872-3.156 0-5.609-.919-12.171-1.513s-19.456 2.076-26.081 2.617c-50.589 1.836-70.56-6.773-67.443-11.41q3.18-4.732 13.488-7.696zm114.621-3.767-6.4-17.825 2.825-.274q44.957-4.3 43.525.274c-1.446 4.618-13.531 9.234-21.775 11.108l-.5.111q-8.1 1.764-10.221 7.213l-.076.2z" transform="translate(-98.53 -3118.94)" style="fill:#2a1111;opacity:.2"/>
                <path id="Shape-2" data-name="Shape" class="cls-2" d="M378.806 3073.828v31.372h-17.384v-31.377zm20.352 0v31.372h-17.384v-31.377zm-20.352-34.345v31.377h-17.384v-31.377zm20.352 0v31.377h-17.384v-31.377z" transform="translate(-242.699 -3023.371)"/>
                <path id="Shape-3" data-name="Shape" d="M272.778 3001.483a13.356 13.356 0 1 1-13.356 13.356 13.356 13.356 0 0 1 13.356-13.356zm0 2.968a10.388 10.388 0 1 0 10.388 10.388 10.388 10.388 0 0 0-10.388-10.388zm.424 3.211v6.944l3.879 2.62-.455.716-4.272-2.87v-7.41z" transform="translate(-183.948 -3001.483)" style="fill:#eaeaed"/>
                <path id="Path-773" class="cls-4" d="M142.808 3008.483v89.717l-60.782.039v-.848l59.934-.039v-88.867z" transform="translate(-81.534 -3005.515)"/>
                <path id="Path-773-2" data-name="Path-773" class="cls-4" d="M142.808 3008.483v89.717l-.848-.848v-88.867z" transform="translate(-75.534 -2996.515)"/>
                <path id="Shape-4" data-name="Shape" class="cls-2" d="M134.423 3108.483v46.217h-53v-46.217zm-3.816 32.225H85.238v11.448h45.369zm-22.472 4.664a2.12 2.12 0 1 1-2.12 2.12 2.12 2.12 0 0 1 2.12-2.12zm22.472-19.5H85.238v11.448h45.369zm-22.472 4.664a2.12 2.12 0 1 1-2.12 2.12 2.12 2.12 0 0 1 2.12-2.125zm22.472-19.5H85.238v11.448h45.369zm-22.472 4.664a2.12 2.12 0 1 1-2.12 2.12 2.12 2.12 0 0 1 2.12-2.129z" transform="translate(-81.422 -3063.114)"/>
                <path id="Path-158" class="cls-5" d="M166.047 3195.024q-22.53.661-40.219 10.5c-17.688 9.84-15.687 22.45 0 29.743s46.641 2.971 57.273 1.977 38.514-5.307 52.512-3.519 20.061.224 21.542-5.637-5.494-13.374-14.124-16.264q-8.631-2.888-76.984-16.8z" transform="translate(-99.784 -3112.961)"/>
                <path id="Path" d="m166.047 3195.024 10.147 2.072q44.075 9.031 59.618 12.8l.886.615a62.2 62.2 0 0 0 6.021 3.784l.156.08c8.472 4.3 5.526 8.953 0 10.739l-.337.1c-5.573 1.641-14.854.659-13.549 2.877q.938 1.594 10.178 6.035-1.4-.132-2.935-.32l-.618-.078c-13.718-1.753-40.769 2.354-51.853 3.455l-1.669.161c-11.466 1.144-41.046 5-56.263-2.075-8.12-3.775-12.574-8.975-12.527-14.478 9.039 7.5 31.812 7.421 36.083.439 4.54-7.423.942-12.294-5.519-12.294s-17.785 4.487-7.458-.729 21.043-2.681 21.043-5.682q0-2.618-8.317-5.573a97.741 97.741 0 0 1 16.913-1.928z" transform="translate(-99.784 -3112.961)" style="fill:#f2d3ad"/>
                <path id="Path-602" class="cls-7" d="M384.032 3238.991a.305.305 0 0 1 .408-.142q6.751 3.273 9.535 8.849c1.582 3.175 1.347 6.694-1.009 9.1-2.812 2.87-8.3 3.986-16.476 2.893l-.994-.135q-17.318-2.3-23.735 1.729a.305.305 0 0 1-.324-.517q6.635-4.162 24.135-1.818l.719.1c8.159 1.133 13.556.062 16.239-2.677 2.157-2.2 2.374-5.44.9-8.4q-2.683-5.385-9.254-8.572a.306.306 0 0 1-.144-.41z" transform="translate(-236.865 -3138.186)"/>
                <path id="Path-601" class="cls-7" d="M164.022 3296.608a136.99 136.99 0 0 0 27.506.907.305.305 0 1 1 .038.609 137.582 137.582 0 0 1-27.629-.912.305.305 0 0 1 .043-.608z" transform="translate(-128.798 -3171.47)"/>
                <path id="Path-157" d="M505.521 3183.413q12.818-.491 14.841-2.35c2.023-1.858-9.15-6.3-16.82-5.384q-7.67.911 1.979 7.734z" transform="translate(-322.603 -3101.748)" style="fill:#2a2a2e"/>
                <path id="Path-156" d="M309.36 3157.276q8.488-13.417 24.791-10.023c16.3 3.394 21.851 4.669 33.429 4.669s24.694 2.823 28.942 9.807.458 15.826-18.274 19.3q-18.733 3.471-57.806-3.642z" transform="translate(-212.712 -3085.05)" style="fill:#68646c"/>
                <path id="Path-2" data-name="Path" d="M360.681 3170.814c12.149 7.859 15.685 14.277 23.63 11.068l2.113-.851c6.215-2.478 8.138-2.878 12.1-.134 4.106 2.844 9.285-1.038 10.818-5.7 1.52 6.3-3.571 13.2-19.592 16.17q-18.733 3.471-57.806-3.642l-.786-1.425-1.829-21.389q19.203-1.957 31.352 5.903z" transform="translate(-224.214 -3095.391)" style="fill:#545058"/>
                <g id="Group-21" transform="translate(55.757 69.519)">
                    <path id="Path-141" class="cls-11" d="M306.066 3277.717q9.524-.784 15.131 1.921a15.965 15.965 0 0 0 14.54 0c3.662-1.921 4.2-3.639 0-7.588s-13.443-7.562-17.608-7.562q-4.165-.001-12.063 13.229z" transform="translate(-266.572 -3222.49)"/>
                    <path id="Path-585" class="cls-12" d="M308.075 3275.834q6.249.35 7.212-2.356a13.521 13.521 0 0 1 5.815-6.94c2.419-1.206 4.7-3.713 3.56-4.818q-1.141-1.1-5.543-1.636l-8.749 8.229z" transform="translate(-267.729 -3219.953)"/>
                    <path id="Path-137" d="M277.194 3204.943q15.21 3.125 23.334-1.043c8.124-4.167 5.789-11.984 0-21.1s-24.662-19.234-45.849-17.059-39.711 29.306-41.45 40.673 4.145 16.632 12.311 18.372 23.08-1.417 28.033-2.945 2.427-8.543 8.48-10.81 3.093-7.129 3.093-7.129z" transform="translate(-212.922 -3165.439)" style="fill:#0e9576"/>
                    <path id="Path-3" data-name="Path" class="cls-5" d="M386.4 3210.994q2.416-.313 7.019 2.426c4.6 2.738 6.769 6.727 6.769 10.854a11.343 11.343 0 0 1-1.934 5.965 19.461 19.461 0 0 1-3.342 1.269c2.912-3.313 2.8-10.406-1.141-14.558a17.468 17.468 0 0 0-10.438-5.411l-.334-.046z" transform="translate(-310.887 -3191.66)"/>
                    <path id="Path-4" data-name="Path" class="cls-5" d="M359.368 3215.067c12.191 0 16.556 8.458 16.556 12.676q0 3.322-3.186 6.938a36.344 36.344 0 0 1-4.5.178c2.7-2.046 5.189-5.987 1.745-11.359q-4.294-6.7-17.967-5.844a45.347 45.347 0 0 1 7.352-2.589z" transform="translate(-293.037 -3194.024)"/>
                    <path id="Shape-5" data-name="Shape" class="cls-5" d="m249.78 3240.65 6.049 1q-10.873 7.244-11.895 15.14a20.949 20.949 0 0 0 1.618 11.611 60.113 60.113 0 0 1-3.8.207 19.823 19.823 0 0 1-1.636-13.016 23.743 23.743 0 0 1 9.365-14.715zm-10.653 1 5.236.332q-8.625 5.225-10.1 12.956a25.371 25.371 0 0 0 1.358 13.285q-.3-.053-.582-.114a22.392 22.392 0 0 1-3.921-1.2q-2.889-8.553-.882-14.082a22.214 22.214 0 0 1 8.585-10.971z" transform="translate(-222.42 -3208.76)"/>
                    <path id="Path-5" data-name="Path" class="cls-14" d="M264.051 3165.738a57.818 57.818 0 0 1 10.889-.081 20.627 20.627 0 0 0-2.878 2.489c-5.833 6.041-3.624 18.945-2.376 20.339s6.686-1.394 10.9-2.494a34.574 34.574 0 0 1 11.084-.562l-.894.265a84.11 84.11 0 0 0-11.978 4.348 41.173 41.173 0 0 0-9.452 6.965l-.344.322-8.515 3.521-11.516-1.992-1.67-.131q-5.108-.391-7.18-.4h-.828a15 15 0 0 1-8.453-2.161q-1.953-1.282-1.59-4.617c7.55-11.64 20.576-24.349 34.801-25.811z" transform="translate(-222.295 -3165.439)"/>
                    <path id="Path-139" class="cls-15" d="M351.929 3209.581a.305.305 0 1 1 .025.61q-21.405.884-34.057 14.77a.305.305 0 1 1-.451-.411q12.833-14.075 34.483-14.969z" transform="translate(-273.081 -3190.864)"/>
                    <path id="Path-142" class="cls-7" d="M341.421 3289.009h.042a21.106 21.106 0 0 1 9.839 4.186.305.305 0 1 1-.356.5 20.512 20.512 0 0 0-9.551-4.074.305.305 0 0 1 .026-.609z" transform="translate(-286.765 -3236.615)"/>
                    <path id="Path-143" class="cls-7" d="M349.692 3282.165a.305.305 0 0 1 .363-.234 19.626 19.626 0 0 1 10.487 6.277.305.305 0 1 1-.451.412 19.018 19.018 0 0 0-10.164-6.092.305.305 0 0 1-.235-.363z" transform="translate(-291.696 -3232.533)"/>
                    <path id="Path-144" class="cls-7" d="M361.914 3279.448a.305.305 0 0 1 .424-.081 27.824 27.824 0 0 1 7.607 7.374.305.305 0 1 1-.508.34 27.22 27.22 0 0 0-7.443-7.209.3.3 0 0 1-.08-.424z" transform="translate(-298.709 -3231.03)"/>
                    <path id="Path-586" class="cls-16" d="m317.761 3289.843 2.466.244a.305.305 0 0 1-.019.609h-.042l-2.466-.244a.305.305 0 0 1 .019-.609z" transform="translate(-273.115 -3237.094)"/>
                    <path id="Path-587" class="cls-16" d="M319.447 3279.489a.306.306 0 0 1 .365-.161l.042.016 3.9 1.857a.305.305 0 0 1-.221.568l-.042-.017-3.9-1.857a.3.3 0 0 1-.144-.406z" transform="translate(-274.262 -3231.031)"/>
                    <path id="Path-588" class="cls-16" d="M329.621 3273.761a.306.306 0 0 1 .379-.123l.04.021 2.149 1.308a.305.305 0 0 1-.277.542l-.04-.021-2.149-1.308a.306.306 0 0 1-.102-.419z" transform="translate(-280.114 -3227.747)"/>
                    <path id="Path-589" class="cls-16" d="M334.7 3267.339a.3.3 0 0 1 .385-.1l.039.022 3.165 2.155a.305.305 0 0 1-.3.527l-.039-.023-3.165-2.154a.305.305 0 0 1-.085-.427z" transform="translate(-283.033 -3224.056)"/>
                    <path id="Path-590" class="cls-16" d="M341.185 3265.377a.306.306 0 0 1 .39-.084l.038.025 1.9 1.436a.305.305 0 0 1-.329.512l-.038-.024-1.9-1.436a.306.306 0 0 1-.061-.429z" transform="translate(-286.765 -3222.933)"/>
                    <path id="Path-591" class="cls-15" d="M221.079 3293.965a.305.305 0 0 1 .432.009q7.875 8.205 29.4 3.293a.305.305 0 1 1 .137.595q-21.813 5-29.974-3.466a.305.305 0 0 1 .005-.431z" transform="translate(-217.567 -3239.42)"/>
                    <path id="Path-592" class="cls-12" d="M330.011 3244.639q4.443.769 6.065-1.663c1.621-2.433 0-5.3-3.033-6.947s-9.044-3.522-16.186.9q-7.141 4.423 13.154 7.71z" transform="translate(-271.717 -3205.04)"/>
                    <path id="Path-593" class="cls-16" d="M360.13 3251.522a.305.305 0 0 1 .171.584l-.04.012-2.942.649a.305.305 0 0 1-.171-.585l.04-.011z" transform="translate(-295.88 -3215.018)"/>
                    <path id="Path-594" class="cls-16" d="M358.047 3241.678a.305.305 0 0 1 .342.5l-.037.025-3.834 2.209a.305.305 0 0 1-.342-.5l.037-.025z" transform="translate(-294.217 -3209.329)"/>
                    <path id="Path-595" class="cls-16" d="M350.959 3236.091a.305.305 0 0 1 .467.39l-.032.038-2.347 2.391a.305.305 0 0 1-.468-.39l.032-.038z" transform="translate(-291.028 -3206.081)"/>
                    <path id="Path-596" class="cls-16" d="M340.557 3233.59a.305.305 0 0 1 .508.335l-.025.038-2.116 2.739a.305.305 0 0 1-.508-.335l.025-.038z" transform="translate(-285.183 -3204.625)"/>
                    <path id="Path-597" class="cls-16" d="M331.61 3234.382a.305.305 0 0 1 .542.277l-.02.04-.824 1.358a.305.305 0 0 1-.542-.276l.02-.04z" transform="translate(-280.785 -3205.065)"/>
                    <path id="Path-598" class="cls-15" d="M395.7 3251.582a.305.305 0 1 1 .382.477q-7.439 5.953-21.8 3.39a.305.305 0 1 1 .107-.6q14.12 2.509 21.311-3.267z" transform="translate(-305.722 -3215.018)"/>
                    <path id="Path-599" class="cls-14" d="M343.137 3190.373q3.136-2.889 9.559-2.889h.463c7.348.107 4.151 2.791-1.479 4.413a16.854 16.854 0 0 1-7.7.619l-.269-.053a1.221 1.221 0 0 1-.578-2.094z" transform="translate(-287.698 -3178.137)"/>
                </g>
                <path id="Path-149" class="cls-11" d="M242.695 3218.722a3.74 3.74 0 0 0-3.836-.793c-2.151.686-3.075 7.313 3.836 8.208q6.911.894 5.553-4.165z" transform="translate(-171.199 -3126.028)"/>
                <path id="Path-150" d="M245.655 3153.338q-1.007-14.673-4.653-16.718t-6.639 0q-1.626-6.792-7.277-6.068c-5.651.724-11.553 4.785-17.915 17.459q-6.363 12.674-13.807 8.67 5.776 7.942 17.95 4.612t28.163-1.54z" transform="translate(-147.052 -3075.786)" style="fill:#3e3e43"/>
                <path id="Path-149-Copy" class="cls-11" d="M300.394 3178.346a3.741 3.741 0 0 1 .431-3.894c1.317-1.834 7.906-.664 6.62 6.185q-1.286 6.849-5.677 3.995z" transform="translate(-207.342 -3100.665)"/>
                <path id="Path-148" class="cls-11" d="M237.7 3180.285q5.768 14.267 14.622 17.556c6.318 0 20.156 3.508 19.463 1.507s-1.565-8.4-1.565-15.135-5.3-16.624-14.979-20.472q-9.358 13.514-17.541 16.544z" transform="translate(-171.436 -3094.941)"/>
                <path id="Path-6" data-name="Path" d="m301.953 3213 .04-.3.005.65c.075 6.38.9 12.29 1.559 14.2.442 1.277-5.033.311-10.7-.556a7.175 7.175 0 0 0 4.3-1.9q3.637-3.794 4.796-12.094z" transform="translate(-203.21 -3123.14)" style="fill:#d49763"/>
                <path id="Path-140" class="cls-15" d="M247.4 3242.278q17.715.015 31.736 5.069a.305.305 0 0 1-.207.574q-13.917-5.017-31.53-5.033a.305.305 0 0 1 0-.611z" transform="translate(-176.85 -3140.178)"/>
                <path id="Path-151" class="cls-7" d="M277.94 3180.323a.305.305 0 0 1 .156.59c-9.346 2.48-9.705 7.356-1.021 15.028a.305.305 0 0 1-.4.458c-9.017-7.963-8.613-13.455 1.265-16.076z" transform="translate(-190.161 -3104.487)"/>
                <path id="Path-583" class="cls-7" d="M291.065 3169.994a.305.305 0 0 1 .43-.046q8.622 6.939 9.549 15.408l.121 1.157c.164 1.635.253 2.9.354 4.852l.146 3c.038.723.075 1.26.123 1.821a32.159 32.159 0 0 0 .992 5.629.305.305 0 0 1-.591.154 32.916 32.916 0 0 1-.979-5.4l-.031-.335a50.881 50.881 0 0 1-.117-1.685l-.165-3.363a90.044 90.044 0 0 0-.461-5.764q-.888-8.2-9.324-15a.305.305 0 0 1-.047-.428z" transform="translate(-202.135 -3098.478)"/>
                <path id="Path-138" class="cls-11" d="M318.457 3243.584c-1.286-1.057-6.033-4.024-15.545-2.513s-12.223 10.261-10.867 11.885 6.04 1.752 10.867.876 14.718-4.767 16-6.3.831-2.891-.455-3.948z" transform="translate(-202.55 -3139.241)"/>
                <path id="Path-145" class="cls-7" d="M307.207 3250.051a.305.305 0 1 1 .2.576q-6.375 2.238-8.954 9.253a.305.305 0 1 1-.573-.211q2.68-7.276 9.327-9.618z" transform="translate(-206.09 -3144.646)"/>
                <path id="Path-146" class="cls-7" d="M318.593 3256.118a.305.305 0 1 1 .151.591 15.183 15.183 0 0 0-8.1 5.214.305.305 0 0 1-.47-.389 15.791 15.791 0 0 1 8.419-5.416z" transform="translate(-213.143 -3148.145)"/>
                <path id="Path-147" class="cls-7" d="M301.285 3247.019a.305.305 0 1 1 .221.569q-3.826 1.486-6.475 6.958a.305.305 0 1 1-.549-.266q2.738-5.673 6.803-7.261z" transform="translate(-204.125 -3142.897)"/>
                <path id="Path-152" class="cls-7" d="M252.673 3197.179a.305.305 0 0 1 0 .611c-3.924 0-6.408 1.158-7.51 3.455a.305.305 0 1 1-.55-.264c1.218-2.541 3.924-3.802 8.06-3.802z" transform="translate(-175.401 -3114.202)"/>
                <path id="Path-153" class="cls-19" d="M255.369 3203.339a.305.305 0 0 1 .442.421 12.556 12.556 0 0 1-7.591 3.8.305.305 0 0 1-.085-.6 11.941 11.941 0 0 0 7.234-3.621z" transform="translate(-177.296 -3117.696)"/>
                <path id="Path-154" class="cls-19" d="M284.571 3186.894a.305.305 0 1 1 .5.351 11.79 11.79 0 0 1-7.5 4.539.305.305 0 0 1-.13-.6 11.19 11.19 0 0 0 7.13-4.29z" transform="translate(-194.19 -3108.203)"/>
                <path id="Path-155" class="cls-7" d="M287.086 3219.2a.305.305 0 0 1 .5.35 15.293 15.293 0 0 1-8.131 5.794.305.305 0 1 1-.187-.581 14.687 14.687 0 0 0 7.818-5.563z" transform="translate(-195.257 -3126.812)"/>
                <path id="Path-582" class="cls-7" d="M240.309 3209.607a.305.305 0 0 1 .4.154 28.993 28.993 0 0 0 11.24 13.276.305.305 0 1 1-.321.519 29.6 29.6 0 0 1-11.476-13.547.3.3 0 0 1 .157-.402z" transform="translate(-172.835 -3121.345)"/>
                <path id="Path-584" class="cls-7" d="M308.472 3239.93a.305.305 0 0 1 0 .611c-8.327 0-13.46 2.759-15.474 8.27a.305.305 0 0 1-.573-.209c2.113-5.784 7.486-8.672 16.047-8.672z" transform="translate(-202.947 -3138.826)"/>
                <path id="Path-600" class="cls-7" d="M135.077 3207.639a.305.305 0 0 1 .217.571q-12.594 4.79-20.068 12.46c-7.32 7.5.565 20.094 14.9 23.532a.305.305 0 0 1-.142.594c-14.725-3.532-22.925-16.626-15.194-24.553q7.577-7.769 20.287-12.604z" transform="translate(-98.933 -3120.215)"/>
            </g>
        </g>
    </g>
</svg>
