<svg xmlns="http://www.w3.org/2000/svg" width="302.773" height="198.52" viewBox="0 0 302.773 198.52">
    <g data-name="Sleeping">
        <path d="m132.228 3242.025 15.238.861q179.032 10.2 174.27 13.8c-4.96 3.755-21.491 3.529-25.962 5.22l-.512.2c-4.894 1.912-17.382 7.45-22.036 7.45-4.826 0-8.577-1.406-18.611-2.313s-29.752 3.174-39.882 4c-77.358 2.808-107.9-10.357-103.131-17.448q4.863-7.238 20.626-11.77zm175.273-5.76-9.783-27.257 4.32-.418q68.746-6.571 66.557.418c-2.212 7.062-20.691 14.121-33.3 16.986l-.764.17q-12.381 2.7-15.629 11.03l-.117.311z" transform="translate(-91.866 -3073.187)" style="fill:#2a1111;opacity:.2"/>
        <path data-name="Shape" d="M388.005 3092v47.98h-26.583V3092zm31.122 0v47.98h-26.583V3092zm-31.122-52.519v47.98h-26.583v-47.98zm31.122 0v47.98h-26.583v-47.98z" transform="translate(-179.877 -3014.845)" style="opacity:.997;fill:#eaeaed"/>
        <path data-name="Shape" d="M279.846 3001.483a20.424 20.424 0 1 1-20.424 20.424 20.424 20.424 0 0 1 20.424-20.424zm0 4.539a15.885 15.885 0 1 0 15.885 15.885 15.885 15.885 0 0 0-15.885-15.886zm.648 4.911v10.619l5.931 4.007-.7 1.094-6.532-4.389v-11.331z" transform="translate(-144.011 -3001.483)" style="fill:#eaeaed"/>
        <path d="M174.972 3008.482v137.189l-92.945.059v-1.3l91.648-.059v-135.889z" transform="translate(-81.274 -3003.944)" style="stroke:#eaeaed;fill:#eaeaed"/>
        <path data-name="Path-773" d="M143.257 3008.482v137.189l-1.3-1.3v-135.889z" transform="translate(-40.384 -2990.181)" style="stroke:#eaeaed;fill:#eaeaed"/>
        <path data-name="Shape" d="M162.469 3108.483v70.673H81.422v-70.673zm-5.835 49.276H87.257v17.506h69.376zm-34.364 7.132a3.242 3.242 0 1 1-3.242 3.242 3.242 3.242 0 0 1 3.242-3.241zm34.364-29.825H87.257v17.506h69.376zm-34.364 7.134a3.242 3.242 0 1 1-3.242 3.242 3.242 3.242 0 0 1 3.242-3.242zm34.364-29.826H87.257v17.506h69.376zm-34.364 7.132a3.242 3.242 0 1 1-3.242 3.242 3.242 3.242 0 0 1 3.242-3.243z" transform="translate(-81.422 -3039.107)" style="opacity:.997;fill:#eaeaed"/>
        <path d="M193.958 3195.024q-34.451 1.011-61.5 16.059c-27.048 15.046-23.988 34.33 0 45.481s71.321 4.543 87.58 3.023 58.894-8.116 80.3-5.38 30.677.342 32.941-8.62-8.4-20.45-21.6-24.87q-13.196-4.417-117.721-25.693z" transform="translate(-92.632 -3069.536)" style="fill:#fae6ce"/>
        <path d="m193.958 3195.024 15.516 3.168q67.4 13.809 91.165 19.566l1.354.939a95.019 95.019 0 0 0 9.207 5.787l.238.122c12.955 6.57 8.45 13.69 0 16.421l-.515.159c-8.522 2.509-22.714 1.008-20.718 4.4q1.435 2.437 15.564 9.229-2.146-.2-4.488-.49l-.945-.119c-20.976-2.681-62.342 3.6-79.292 5.283l-2.553.247c-17.533 1.75-62.765 7.644-86.034-3.173-12.417-5.772-19.227-13.723-19.156-22.138 13.822 11.461 48.645 11.349 55.176.672 6.943-11.351 1.441-18.8-8.44-18.8s-27.2 6.86-11.4-1.115 32.178-4.1 32.178-8.688q0-4-12.717-8.521a149.5 149.5 0 0 1 25.86-2.949z" transform="translate(-92.631 -3069.536)" style="fill:#f2d3ad"/>
        <path d="M401.356 3239.083a.466.466 0 0 1 .624-.217q10.323 5 14.58 13.532c2.419 4.855 2.06 10.236-1.543 13.914-4.3 4.389-12.694 6.095-25.195 4.424l-1.52-.207q-26.482-3.524-36.294 2.645a.467.467 0 0 1-.5-.791q10.146-6.365 36.906-2.78l1.1.149c12.477 1.732 20.729.1 24.832-4.093 3.3-3.367 3.63-8.319 1.375-12.844q-4.1-8.234-14.151-13.108a.467.467 0 0 1-.214-.624z" transform="translate(-176.315 -3084.936)" style="fill:#d84b25"/>
        <path d="M164.206 3296.609a209.439 209.439 0 0 0 42.061 1.391.467.467 0 1 1 .058.932 210.371 210.371 0 0 1-42.249-1.395.467.467 0 0 1 .065-.929z" transform="translate(-110.344 -3105.255)" style="fill:#d84b25"/>
        <path d="M508.366 3187.57q19.6-.751 22.694-3.593c3.093-2.842-13.991-9.626-25.72-8.233q-11.729 1.392 3.026 11.826z" transform="translate(-228.655 -3062.692)" style="fill:#2a2a2e"/>
        <path d="M309.36 3162.942q12.98-20.517 37.909-15.327c24.928 5.19 33.414 7.14 51.119 7.14s37.761 4.317 44.257 15 .7 24.2-27.944 29.508q-28.645 5.307-88.395-5.57z" transform="translate(-161.57 -3052.498)" style="fill:#68646c"/>
        <path data-name="Path" d="M377.271 3174.145c18.578 12.018 23.985 21.831 36.135 16.925l3.231-1.3c9.5-3.79 12.444-4.4 18.5-.2 6.278 4.349 14.2-1.587 16.543-8.719 2.324 9.639-5.461 20.188-29.96 24.726q-28.645 5.307-88.395-5.57l-1.2-2.178-2.8-32.707q29.368-2.997 47.946 9.023z" transform="translate(-168.592 -3058.811)" style="fill:#545058"/>
        <path d="M306.066 3284.718q14.564-1.2 23.137 2.937a24.411 24.411 0 0 0 22.234 0c5.6-2.937 6.418-5.564 0-11.6s-20.556-11.564-26.925-11.564q-6.369-.004-18.446 20.227z" transform="translate(-160.412 -3093.961)" style="fill:#e7af7f"/>
        <path d="M308.075 3284.169q9.556.535 11.028-3.6c1.472-4.14 5.193-8.768 8.893-10.612s7.189-5.678 5.444-7.368q-1.745-1.689-8.476-2.5l-13.378 12.583z" transform="translate(-161.118 -3092.413)" style="fill:#393a5f"/>
        <path d="M311.2 3225.847q23.258 4.778 35.681-1.6c12.422-6.372 8.853-18.325 0-32.269s-37.713-29.412-70.11-26.086-60.725 44.813-63.384 62.2 6.338 25.433 18.826 28.094 35.292-2.166 42.866-4.5 3.712-13.063 12.968-16.53 4.729-10.9 4.729-10.9z" transform="translate(-127.66 -3059.133)" style="fill:#0e9576"/>
        <path data-name="Path" d="M388.2 3211.011q3.695-.478 10.734 3.71c7.039 4.187 10.351 10.286 10.351 16.6a17.345 17.345 0 0 1-2.957 9.121 29.706 29.706 0 0 1-5.11 1.94c4.452-5.066 4.275-15.912-1.744-22.261a26.712 26.712 0 0 0-15.961-8.274l-.511-.07z" transform="translate(-187.464 -3075.14)" style="fill:#fae6ce"/>
        <path data-name="Path" d="M363.26 3215.067c18.642 0 25.317 12.935 25.317 19.384q0 5.079-4.871 10.609a55.549 55.549 0 0 1-6.888.272c4.133-3.129 7.935-9.155 2.669-17.37q-6.567-10.243-27.475-8.937a69.329 69.329 0 0 1 11.248-3.958z" transform="translate(-176.568 -3076.584)" style="fill:#fae6ce"/>
        <path data-name="Shape" d="m260.558 3240.65 9.25 1.522q-16.626 11.078-18.189 23.151a32.034 32.034 0 0 0 2.474 17.754 91.188 91.188 0 0 1-5.8.316 30.312 30.312 0 0 1-2.5-19.9 36.306 36.306 0 0 1 14.32-22.5zm-16.29 1.522 8.006.507q-13.189 7.99-15.448 19.811-1.787 9.346 2.077 20.315-.452-.081-.89-.174a34.213 34.213 0 0 1-6-1.832q-4.417-13.079-1.349-21.533a33.97 33.97 0 0 1 13.136-16.776z" transform="translate(-133.458 -3085.579)" style="fill:#fae6ce"/>
        <path data-name="Path" d="M282.5 3165.9a88.453 88.453 0 0 1 16.651-.124 31.513 31.513 0 0 0-4.4 3.806c-8.92 9.238-5.541 28.97-3.633 31.1s10.224-2.132 16.671-3.813q6.447-1.681 16.949-.858l-1.367.405a128.634 128.634 0 0 0-18.317 6.648q-6.323 3.081-14.454 10.65l-.526.493-13.021 5.385-17.61-3.046-2.554-.2q-7.812-.6-10.98-.615h-1.266c-3.538-.027-8.369-.312-12.926-3.3q-2.986-1.96-2.432-7.06c11.541-17.806 31.459-37.243 53.215-39.471z" transform="translate(-133.382 -3059.133)" style="fill:#01896a"/>
        <path d="M370.218 3209.581a.467.467 0 1 1 .039.933q-32.732 1.352-52.079 22.585a.467.467 0 1 1-.69-.629q19.623-21.521 52.73-22.889z" transform="translate(-164.385 -3074.654)" style="fill:#1c483e"/>
        <path d="M341.578 3289.009h.064q7.26.81 15.046 6.4a.467.467 0 1 1-.545.758q-7.6-5.454-14.6-6.23a.467.467 0 0 1 .04-.931z" transform="translate(-172.739 -3102.584)" style="fill:#d84b25"/>
        <path d="M349.7 3282.292a.467.467 0 0 1 .554-.358 30.013 30.013 0 0 1 16.036 9.6.467.467 0 0 1-.689.629 29.083 29.083 0 0 0-15.542-9.315.467.467 0 0 1-.359-.556z" transform="translate(-175.749 -3100.092)" style="fill:#d84b25"/>
        <path d="M361.942 3279.518a.466.466 0 0 1 .648-.123 42.537 42.537 0 0 1 11.633 11.276.467.467 0 1 1-.776.519 41.627 41.627 0 0 0-11.382-11.023.466.466 0 0 1-.123-.649z" transform="translate(-180.031 -3099.174)" style="fill:#d84b25"/>
        <path d="m317.938 3289.844 3.77.374a.467.467 0 0 1-.029.931h-.064l-3.77-.374a.467.467 0 0 1 .029-.931z" transform="translate(-164.406 -3102.877)" style="fill:#fff"/>
        <path d="M319.462 3279.581a.468.468 0 0 1 .558-.246l.064.025 5.96 2.839a.467.467 0 0 1-.337.869l-.064-.025-5.96-2.84a.466.466 0 0 1-.221-.622z" transform="translate(-165.106 -3099.174)" style="fill:#fff"/>
        <path d="M329.644 3273.838a.467.467 0 0 1 .58-.187l.062.032 3.286 2a.467.467 0 0 1-.423.829l-.062-.031-3.287-2a.468.468 0 0 1-.156-.643z" transform="translate(-168.679 -3097.17)" style="fill:#fff"/>
        <path d="M334.726 3267.41a.466.466 0 0 1 .589-.158l.06.035 4.84 3.295a.467.467 0 0 1-.465.806l-.06-.035-4.84-3.294a.467.467 0 0 1-.124-.649z" transform="translate(-170.461 -3094.917)" style="fill:#fff"/>
        <path d="M341.217 3265.441a.469.469 0 0 1 .6-.129l.058.038 2.909 2.2a.467.467 0 0 1-.5.783l-.058-.038-2.91-2.2a.468.468 0 0 1-.099-.654z" transform="translate(-172.739 -3094.231)" style="fill:#fff"/>
        <path d="M221.129 3294.01a.467.467 0 0 1 .66.014q12.042 12.547 44.953 5.036a.467.467 0 1 1 .209.91q-33.355 7.649-45.835-5.3a.466.466 0 0 1 .013-.66z" transform="translate(-130.496 -3104.296)" style="fill:#1c483e"/>
        <path d="M337.955 3250.168q6.794 1.176 9.274-2.543c2.479-3.72 0-8.11-4.637-10.622s-13.829-5.386-24.75 1.376q-10.922 6.763 20.113 11.789z" transform="translate(-163.553 -3083.308)" style="fill:#393a5f"/>
        <path d="M361.814 3251.526a.467.467 0 0 1 .262.894l-.061.018-4.5.993a.467.467 0 0 1-.262-.894l.061-.017z" transform="translate(-178.303 -3089.399)" style="fill:#fff"/>
        <path d="M360.157 3241.7a.467.467 0 0 1 .523.771l-.057.039-5.863 3.378a.467.467 0 0 1-.523-.771l.057-.039z" transform="translate(-177.288 -3085.926)" style="fill:#fff"/>
        <path d="M352.248 3236.139a.467.467 0 0 1 .715.6l-.049.059-3.589 3.655a.467.467 0 0 1-.715-.6l.049-.058z" transform="translate(-175.341 -3083.944)" style="fill:#fff"/>
        <path d="M341.71 3233.653a.467.467 0 0 1 .777.512l-.038.058-3.235 4.188a.467.467 0 0 1-.777-.513l.038-.058z" transform="translate(-171.773 -3083.055)" style="fill:#fff"/>
        <path d="M332.07 3234.46a.467.467 0 0 1 .829.423l-.031.062-1.26 2.077a.467.467 0 0 1-.829-.422l.031-.062z" transform="translate(-169.088 -3083.324)" style="fill:#fff"/>
        <path d="M407.169 3251.617a.467.467 0 0 1 .584.729q-11.375 9.1-33.332 5.184a.467.467 0 1 1 .163-.919q21.584 3.839 32.585-4.994z" transform="translate(-184.312 -3089.4)" style="fill:#1c483e"/>
        <path d="M343.346 3191.9q4.8-4.417 14.618-4.417l.708.005c11.237.164 6.347 4.268-2.262 6.748a25.771 25.771 0 0 1-11.768.947l-.412-.081a1.867 1.867 0 0 1-.884-3.2z" transform="translate(-173.308 -3066.885)" style="fill:#01896a"/>
        <path d="M245.556 3219.257a5.72 5.72 0 0 0-5.866-1.213c-3.29 1.048-4.7 11.183 5.866 12.55q10.568 1.367 8.492-6.368z" transform="translate(-136.228 -3077.514)" style="fill:#e7af7f"/>
        <path d="M272.267 3165.432q-1.54-22.438-7.115-25.564t-10.152 0q-2.486-10.386-11.128-9.279c-8.642 1.107-17.666 7.317-27.4 26.7q-9.73 19.381-21.114 13.257 8.833 12.145 27.449 7.052t43.066-2.355z" transform="translate(-121.487 -3046.842)" style="fill:#3e3e43"/>
        <path d="M300.582 3180.817a5.72 5.72 0 0 1 .659-5.954c2.014-2.8 12.09-1.016 10.124 9.457q-1.966 10.474-8.68 6.108z" transform="translate(-158.292 -3062.03)" style="fill:#e7af7f"/>
        <path d="M237.7 3189.04q8.82 21.817 22.359 26.845c9.661 0 30.821 5.365 29.762 2.3s-2.392-12.852-2.392-23.145-8.1-25.421-22.905-31.3q-14.31 20.666-26.824 25.3z" transform="translate(-136.373 -3058.536)" style="fill:#e7af7f"/>
        <path data-name="Path" d="m306.763 3213.155.062-.458.008.995c.115 9.756 1.375 18.794 2.384 21.712.676 1.953-7.7.475-16.355-.85a10.973 10.973 0 0 0 6.573-2.9q5.557-5.801 7.328-18.499z" transform="translate(-155.769 -3075.75)" style="fill:#d49763"/>
        <path d="M247.565 3242.278q27.089.023 48.53 7.751a.467.467 0 0 1-.316.878q-21.282-7.672-48.215-7.7a.467.467 0 0 1 0-.934z" transform="translate(-139.678 -3086.152)" style="fill:#1c483e"/>
        <path d="M282.032 3180.329a.467.467 0 0 1 .239.9c-14.292 3.792-14.841 11.249-1.562 22.981a.467.467 0 0 1-.618.7c-13.783-12.176-13.164-20.574 1.941-24.581z" transform="translate(-147.803 -3064.364)" style="fill:#d84b25"/>
        <path d="M291.1 3170.054a.467.467 0 0 1 .657-.07q13.185 10.61 14.6 23.561l.185 1.769c.25 2.5.387 4.429.541 7.418l.224 4.582c.058 1.1.114 1.928.189 2.785a49.172 49.172 0 0 0 1.516 8.608.467.467 0 0 1-.9.236 50.326 50.326 0 0 1-1.5-8.25l-.047-.513c-.07-.806-.123-1.58-.178-2.577l-.253-5.143c-.18-3.439-.343-5.475-.7-8.814q-1.359-12.546-14.258-22.935a.467.467 0 0 1-.076-.657z" transform="translate(-155.114 -3060.695)" style="fill:#d84b25"/>
        <path d="M332.606 3245.137c-1.967-1.617-9.226-6.153-23.771-3.843s-18.69 15.69-16.618 18.174 9.237 2.679 16.618 1.339 22.506-7.29 24.473-9.634 1.266-4.42-.702-6.036z" transform="translate(-155.367 -3085.58)" style="fill:#e7af7f"/>
        <path d="M312.151 3250.061a.467.467 0 1 1 .309.88q-9.748 3.422-13.692 14.15a.467.467 0 1 1-.876-.323q4.095-11.127 14.259-14.707z" transform="translate(-157.528 -3088.879)" style="fill:#d84b25"/>
        <path d="M323.082 3256.123a.467.467 0 1 1 .231.9 23.218 23.218 0 0 0-12.378 7.977.467.467 0 0 1-.719-.6 24.147 24.147 0 0 1 12.866-8.277z" transform="translate(-161.833 -3091.015)" style="fill:#d84b25"/>
        <path d="M304.9 3247.03a.467.467 0 1 1 .338.87q-5.85 2.272-9.9 10.641a.467.467 0 1 1-.84-.406q4.187-8.676 10.402-11.105z" transform="translate(-156.328 -3087.812)" style="fill:#d84b25"/>
        <path d="M256.955 3197.179a.467.467 0 0 1 0 .934c-6 0-9.8 1.771-11.484 5.284a.467.467 0 1 1-.842-.4c1.862-3.89 6-5.818 12.326-5.818z" transform="translate(-138.793 -3070.294)" style="fill:#d84b25"/>
        <path d="M259.336 3203.389a.467.467 0 0 1 .676.644 19.2 19.2 0 0 1-11.608 5.813.467.467 0 0 1-.13-.925 18.256 18.256 0 0 0 11.062-5.532z" transform="translate(-139.95 -3072.427)" style="fill:#633a27"/>
        <path d="M288.471 3186.962a.467.467 0 0 1 .764.537q-3.694 5.249-11.467 6.94a.467.467 0 0 1-.2-.913q7.432-1.62 10.903-6.564z" transform="translate(-150.263 -3066.632)" style="fill:#633a27"/>
        <path d="M291.335 3219.27a.467.467 0 0 1 .764.536 23.385 23.385 0 0 1-12.434 8.86.467.467 0 1 1-.285-.889 22.457 22.457 0 0 0 11.955-8.507z" transform="translate(-150.915 -3077.992)" style="fill:#d84b25"/>
        <path d="M240.4 3209.621a.467.467 0 0 1 .617.236q5.975 13.375 17.187 20.3a.467.467 0 0 1-.491.794q-11.46-7.084-17.549-20.715a.466.466 0 0 1 .236-.615z" transform="translate(-137.227 -3074.655)" style="fill:#d84b25"/>
        <path d="M316.973 3239.93a.467.467 0 1 1 0 .934c-12.733 0-20.582 4.219-23.662 12.646a.467.467 0 0 1-.877-.32c3.232-8.843 11.449-13.26 24.539-13.26z" transform="translate(-155.609 -3085.327)" style="fill:#d84b25"/>
        <path d="M147.382 3207.649a.467.467 0 0 1 .332.873q-19.252 7.326-30.688 19.055c-11.194 11.475.864 30.727 22.783 35.984a.467.467 0 0 1-.218.908c-22.516-5.4-35.056-25.423-23.233-37.545q11.589-11.881 31.024-19.275z" transform="translate(-92.112 -3073.965)" style="fill:#d84b25"/>
    </g>
</svg>
